/* XPM */
static char *_d4b24db9d7e47d49b5c72a8562ef345[] = {
/* columns rows colors chars-per-pixel */
"64 64 192 2 ",
"   c #010101",
".  c #0A0406",
"X  c #0D0709",
"o  c #0D0B0B",
"O  c #100107",
"+  c #140209",
"@  c #1D030D",
"#  c #130A0D",
"$  c #180A0E",
"%  c #170C10",
"&  c #1C0E12",
"*  c #151415",
"=  c #1E1115",
"-  c #1B1A1A",
";  c #21020F",
":  c #250311",
">  c #2B0313",
",  c #230C15",
"<  c #330316",
"1  c #350418",
"2  c #3C061C",
"3  c #310B1A",
"4  c #390A1D",
"5  c #221116",
"6  c #251319",
"7  c #2B151C",
"8  c #231A1C",
"9  c #30181F",
"0  c #2F1720",
"q  c #2D1B21",
"w  c #311620",
"e  c #3C1223",
"r  c #341A23",
"t  c #3A1C25",
"y  c #3C1E29",
"u  c gray14",
"i  c #292727",
"p  c #2B2B2B",
"a  c #36252B",
"s  c #3C232C",
"d  c #312C2D",
"f  c #3D2C33",
"g  c #343434",
"h  c #383738",
"j  c #3B3A3A",
"k  c #40071E",
"l  c #45172A",
"z  c #411F2C",
"x  c #45222A",
"c  c #44212D",
"v  c #442431",
"b  c #4C2533",
"n  c #432E36",
"m  c #4D2C3A",
"M  c #512637",
"N  c #532A36",
"B  c #5A2C37",
"V  c #542739",
"C  c #5A2B3B",
"Z  c #44343A",
"A  c #44353B",
"S  c #4C323C",
"D  c #52323F",
"F  c #612D3F",
"G  c #65313E",
"H  c #5F2C41",
"J  c #493C41",
"K  c #553441",
"L  c #533D45",
"P  c #5D3948",
"I  c #622F42",
"U  c #653145",
"Y  c #6A3244",
"T  c #673148",
"R  c #6C3349",
"E  c #653B48",
"W  c #703646",
"Q  c #743846",
"!  c #73364C",
"~  c #76394C",
"^  c #7B3B4E",
"/  c #773751",
"(  c #773851",
")  c #7C3A53",
"_  c #434242",
"`  c #494244",
"'  c #4B4B4B",
"]  c #544249",
"[  c #5B464E",
"{  c #5B4A50",
"}  c #5D4E53",
"|  c #565656",
" . c gray37",
".. c #61434E",
"X. c #674A55",
"o. c #784655",
"O. c #635359",
"+. c #655159",
"@. c #635A5C",
"#. c #6B5C62",
"$. c #755864",
"%. c #646363",
"&. c #6C6266",
"*. c #6D686A",
"=. c #746469",
"-. c #74656B",
";. c #776C70",
":. c #7C6B72",
">. c #747474",
",. c #7B7476",
"<. c #7E7679",
"1. c #7C7C7C",
"2. c #823D55",
"3. c #863E5A",
"4. c #8B3F5D",
"5. c #874055",
"6. c #8B4357",
"7. c #8C425B",
"8. c #91445D",
"9. c #884F60",
"0. c #934560",
"q. c #9C4A63",
"w. c #A14B65",
"e. c #A54D68",
"r. c #A94F6A",
"t. c #AD526B",
"y. c #B3546F",
"u. c #B85671",
"i. c #806B73",
"p. c #807177",
"a. c #837179",
"s. c #8A767C",
"d. c #867B7E",
"f. c #847E80",
"g. c #927A84",
"h. c #A07D87",
"j. c #848283",
"k. c #8B8084",
"l. c #8D8789",
"z. c #8C8B8B",
"x. c #928287",
"c. c #93838A",
"v. c #928C8E",
"b. c #98888F",
"n. c #938F90",
"m. c #939293",
"M. c #999496",
"N. c #9B9698",
"B. c #9B9A9A",
"V. c #A49B9E",
"C. c #AA9A9F",
"Z. c #A79CA0",
"A. c #A4A3A3",
"S. c #ABA2A5",
"D. c #ACAAAA",
"F. c #B2A4AA",
"G. c #B2AAAD",
"H. c #B0B1AF",
"J. c #B2AFB0",
"K. c #B9ACB2",
"L. c #B3B3B3",
"P. c #BAB3B6",
"I. c #BDB7BA",
"U. c #BDBBBC",
"Y. c #C4B6BC",
"T. c #C1BCBE",
"R. c #C4BFC1",
"E. c #C4C3C4",
"W. c #C9C3C5",
"Q. c #CDC5C8",
"!. c #C7C8C8",
"~. c #CBCACA",
"^. c #D1CCCD",
"/. c #D7CFD0",
"(. c #D3D3D3",
"). c #D7D8D7",
"_. c #DCD7D9",
"`. c #DDDCDC",
"'. c #DFE0DF",
"]. c #E3DEE0",
"[. c #E4E3E3",
"{. c #E8E6E7",
"}. c #EAE7E8",
"|. c #ECECEC",
" X c #F1EFEF",
".X c #EFF0F0",
"XX c #F3F3F3",
"oX c #F6F6F6",
"OX c #F8F7F8",
"+X c #F9F9F9",
"@X c #FBFBFB",
"#X c #FEFEFE",
/* pixels */
"@ @ @ @ @ @ @ @ @ @ @ @ @ @ @ @ @ @ @ @ @ @ @ @ @ @ @ @ @ @ @ @ @ @ @ @ @ @ @ @ @ @ @ @ @ @ @ @ @ @ @ > 1 2 2 2 : @ @ @ @ @ @ @ ",
"> > > > @ @ @ @ @ @ @ @ @ @ @ @ @ @ @ @ @ @ @ @ @ @ @ @ @ @ @ @ @ @ @ @ @ @ @ @ : > > > > ; @ @ @ @ @ : > < 1 2 : : > : @ @ @ @ ",
"2 2 2 2 ; @ @ @ @ @ @ @ @ @ @ @ @ @ @ @ @ @ @ @ @ @ @ @ @ @ @ @ @ @ @ @ @ @ @ @ > 1 2 2 2 : @ @ @ @ @ @ @ @ > 2 : > 2 > @ @ @ @ ",
"2 1 2 2 ; > 1 : @ @ @ : 1 > @ @ @ @ @ @ @ @ @ @ @ @ @ @ @ @ @ @ @ @ @ @ @ @ @ @ ; : : 1 2 : @ @ @ @ @ > < < < 1 < < 1 2 2 2 1 1 ",
"2 2 2 2 : < 2 > : @ @ : 2 < : ; @ @ @ @ @ ; : : : @ @ @ @ @ @ @ : : @ @ @ @ @ @ @ @ @ > 1 ; @ @ @ @ @ > > < > > > > > 1 1 1 2 2 ",
"2 2 2 2 1 2 2 2 1 @ @ : 2 2 2 : @ @ @ @ @ > 1 2 > @ @ @ @ @ @ @ < 2 ; @ @ @ @ @ @ @ @ @ @ @ @ @ @ @ @ @ @ @ @ @ @ @ @ @ @ @ < 2 ",
"2 2 2 2 1 > > 2 2 1 1 < > > > 1 > @ > < 1 > : > : @ @ @ @ @ @ @ > 2 1 > @ @ @ @ @ @ @ @ @ @ @ @ @ @ @ @ @ @ @ @ @ @ @ @ ; > < 2 ",
"2 2 2 2 1 > : 2 2 2 2 < @ @ : 1 > @ > 1 2 : @ @ @ ; ; ; ; @ @ @ > < 2 < : @ @ @ @ @ @ ; ; : ; @ @ @ @ @ @ @ @ @ ; ; ; ; : 1 < < ",
"> 1 > > 2 2 < 1 < > b $.+.t ; @ @ @ @ ; ; @ @ > > > > > > ; @ @ @ : < 2 2 : @ @ @ @ @ > < 2 < @ @ @ @ @ @ @ @ @ < < < < 1 2 > @ ",
": > > > 2 1 > > > > F.+X+XQ.i.S , @ @ @ @ @ ; > > > > > > : ; @ @ @ : < 2 < > > > > > > > 2 1 > : @ @ @ @ @ @ @ : > > > > > : @ ",
"@ @ : > < > : @ ; 3 W.(.A.|.#X XG.#.:.p.L @ ; > > > > > > > : @ @ @ @ > 1 2 2 2 2 2 2 > @ < 2 2 > @ @ @ ; ; ; ; ; ; ; @ @ @ @ @ ",
": @ @ ; ; ; @ @ ; 3 P.XXj._ %.L.+X#XOXoX{.#.> > : @ @ @ @ @ @ @ @ @ @ > < : > 1 2 2 2 > @ ; > 1 2 1 @ > < < 1 2 2 2 2 : @ @ @ @ ",
": @ @ @ @ @ @ @ s F.|.#X+Xm.  o <.|.v.x.XX}.] @ ; @ @ @ @ @ ; > > > > > > ; : < 1 1 1 : @ @ : > < > @ : > > 1 2 2 2 1 : @ @ @ @ ",
"@ @ @ @ @ @ @ @ #.oX~.|.#X(.* X # z.} ^ s.XXR.O.7 @ @ @ @ @ : 2 2 2 2 < @ @ : < : @ @ @ @ @ @ @ @ @ @ @ @ @ > 1 2 1 @ @ @ @ @ @ ",
"@ @ : < < < > @ O.OX>.%.oXE.o     * - t R R.+XoX-.> > < 1 1 2 2 1 < 2 < @ @ @ : @ @ @ @ @ @ : 1 1 1 1 : @ @ ; : : : @ @ @ @ @ @ ",
"@ @ > > > > > ; Z |.L.o A.A.    % # = b c @.j..Xk.> < 1 2 2 2 1 > > 1 > @ @ @ : : : : : : : > 2 2 2 2 > : : : @ @ @ @ @ @ @ @ @ ",
"< < : @ @ @ O.G.T.oX~.o p g     5 b 5 b ~ C @.+XV.@ < < > > > @ : > ; @ @ @ : < < < < 2 2 2 2 1 1 2 2 2 1 2 > @ @ @ @ @ @ @ @ @ ",
": : @ + + r ).|.{.#X!.o         % t y 7 7 W 9./.}.J ; : ; ; ; @ > < > > > > > 1 1 1 1 1 2 > > > 1 2 2 2 2 > : @ @ @ @ @ @ @ @ @ ",
"+ + + @ + Z XXj.' [.D.  .     . y 7 X t C b ^ h.+XG.6 @ @ @ ; ; > < < < < < < < < < < 1 < : ; : 1 2 2 2 2 : ; ; : : : : ; @ @ @ ",
"+ + @ @ + n |.z.  p g . y &   . 7 N C 7 U b U o.I.+XI.a...C z 4 ; @ @ ; ; ; ; ; @ : < 2 2 < 1 2 : > 2 2 2 < < < 2 2 2 2 1 @ @ @ ",
"+ @ @ @ + 0 (.[._     # c 6 . 6 t r ~ 6.I b b R X.L.{.#XoX|.].Y.b.} , @ @ @ @ @ @ ; > 1 2 1 1 2 > > > > > > > > > > < 2 2 > : @ ",
"@ @ @ @ + + ;.oX}.m.*   X 0 t w 9 & V r.e.( ) ~ 2.N d  .V.C.I.[.oXoX-.@ @ @ @ @ @ ; > < < < < < 1 < @ @ @ @ @ @ @ @ @ 1 2 2 > @ ",
"@ @ @ + + + @ s.#XU.-     . r r 6 & M 7.r.! w 7 , W W $ c x U o.-.{.D.: < > > < > : > > > > > > < < @ : > < > @ @ @ @ 1 2 1 > @ ",
"+ + + @ @ ; @ K XX<.        . w 7 # & T 4.3.w X   & ~ W b , R 2.8 ~.U.: > : > > > > > > > : : : > > ; : > < > @ ; ; ; < 1 > : @ ",
"+ + + @ < < < a ].(.*.g       $ 5     M T ) I t w   t 7.7.U ! ) a (.[.] : @ @ @ : > > > > ; @ @ : > > ; @ > : @ : > > > : @ @ @ ",
"< < : @ < > @ D }.#X+XL.*     # = .   w r ! C N t . 6 ! ! V & w 0 j.#X|.@.@ @ @ ; ; ; : > : : : : ; ; @ @ ; @ @ ; ; ; ; ; @ @ @ ",
"1 1 : @ > : + a.+Xz.U.E.%.j     . $ .   # 7 % V 2.b $ R ^ ~ V y # * >.XXJ.@ @ @ @ @ @ : : : : : ; @ @ @ @ @ @ @ @ @ @ @ @ @ @ @ ",
"@ @ @ + @ @ + k.|.g p A.B._               . X b 3.R 6 V 7.C 2.U I 7 o U.[.Z + + @ @ @ @ @ @ @ @ @ @ @ @ @ @ @ @ @ @ @ @ @ @ @ @ ",
"> > : > > ; + &.+XL.i 7 $ 6 t $           $ 6 I 3.H 6 c 8.Y ! F ( ! 5 z.#X].-.> > < < : @ > > @ > > @ > > @ : > > < < > > @ @ @ ",
"< < < < 1 > @ 7 S.#X(.@.= t Q y       . v c X c I ~ I ~ 4.2.Y 6.~ R Y S ,.'.}.P 1 2 2 > : 2 1 : 2 2 : < 1 ; > < 2 2 2 2 < : @ @ ",
"@ @ @ @ < < < < e x.|.oXU.l.d.` h >.* % V V # X z ( 7 I ~ ) b t.~ C b z t &.+XK.V 2 2 2 2 2 2 2 2 2 2 > ; @ @ ; ; > 2 2 2 2 > @ ",
"@ ; : ; > > > > > : J N.(.|.+XXX|.+X1.s c c $ & w R $ N b R & G q.I t b T K P.#X_.g.l 2 2 2 2 2 2 2 2 < > @ @ @ @ : < < 1 1 > @ ",
"; < < < @ + + + + + + + 7 n +.<.v.`.oX,.t c z U N V w y % C b # x 8.6.8.0.2.E l.).+Xg.1 < < 2 2 2 2 2 2 2 ; @ @ @ @ @ @ ; > : @ ",
"@ @ @ @ @ + @ + + + + @ > < < > > ..[.[.` # b T C 7 % $ . c 6.r t ^ Y y.u.e.2.V J (.oXx.w ; > 2 2 2 2 2 2 ; : < 1 > @ @ @ ; @ @ ",
"@ ; : : : @ + @ @ @ + @ < 1 1 1 1 < i.+XH.8 $ 5 ~ y 5 7   t 5.G B Y 0.7.7.( R U b { (.#XI.f > 2 2 2 2 2 2 : > < 2 1 : : ; @ @ @ ",
": 2 2 2 2 > + @ @ @ + @ < 1 < < 1 < 4 K.+X-.b I w.5.r .   x Y Y N T ( z y ! 3.6.U C ..A.#XS.4 2 1 2 2 2 2 > > > > < 2 > : @ @ @ ",
"< 2 2 2 2 1 > @ + @ + @ ; ; ; ; ; ; ; L  XL.q ( C b C &   x y c w T I t R 7.e.y.q.~ T s L.XX[ > > > : > > > > > : : > : ; @ : > ",
"2 2 2 1 2 2 1 @ @ @ @ + + + + + + + + & G.|.J t . . C c   % & $ t c t y R / 3.2.! F V V #.+XW.m ; ; + @ @ > > > ; @ @ @ @ @ > 1 ",
"1 1 1 1 1 2 2 @ + @ + + + + @ @ + + + + #.+XM.8 . X V t     = & v 5 X w w U N 5 X & $ X q A.#X_.,.0 + + @ < < < ; @ @ @ @ @ > 1 ",
": : : : < < > > : : : : > ; + @ @ : @ + 0 W.+X!.%.a c .     % b R $   w t b .       .     * 1.[.#XE.f @ : : > > ; @ @ : > > > > ",
"O O O + < > ; < 1 1 1 1 2 > @ @ : < @ + + f B.|.+X!.m.%.j o   r c 6   7 w &               X   i M.+X~.D < @ @ @ @ @ ; > 1 1 > @ ",
"O O O + < < < < 1 1 1 1 2 2 2 2 > @ @ + @ + $ A M.(.|.#XXXj.    . X   $ =                 X 5 . * m.+X^.C 1 > @ @ : < < 1 1 2 2 ",
"O O O + : > > > > : : > 2 2 2 2 1 : : ; @ + @ @ @ 6 Z -._.XX .          & 6                 % y w v B.#XR.v ; @ @ ; > < < > < 1 ",
"O O O O O O O O O O O @ < 2 2 2 2 2 k 1 @ @ @ < : + + @ X.|.[.j     X   # c 6                 t ~ ) E D.#XZ., @ @ @ @ > < @ @ @ ",
"> < < < < ; . O O O O O @ @ @ @ @ : < 2 1 1 1 2 2 1 1 < > p.#XA.          7 U #               & 5.u.w.L !.+X&.@ > > > < < : : : ",
"1 1 2 2 k > @ O O O O O O O O + @ @ < 1 2 2 2 2 2 1 2 2 > 7 R.}.'         r R 7                 9 7.q.F { |.^.w > < < < < > > > ",
"> + > 1 2 2 2 @ O O O O O O + < < < < 1 1 1 1 2 > @ 2 2 2 @ @. X|.z.u     . t c 7               X 7 C b w m.#X-.; > > > > > > > ",
"@ O @ : 1 2 2 @ O O O + : : : : : : : : : < 1 2 1 > 1 2 2 < 3 $.^.#X(.%.o   . 6 t #                 # = 6 j XXI.3 < 1 > > : : ; ",
"O O O + > 1 1 @ O + + @ < < < : @ @ ; ; ; > < 1 2 2 1 2 2 2 2 1 y k.{.+XB.i     . .                     $ * U.oX{ < 2 > : @ ; ; ",
"O O O O + + + O @ < < > + ; > < > > < < < : : 2 2 1 1 2 2 2 1 @ + + J U.+X`.B. .g - o o                 .   | +XM.@ @ @ @ @ > 2 ",
"O O @ ; ; ; ; : > 2 > ; O @ @ : ; @ > < < > > 2 2 < > < 2 2 2 > @ + + 0 :.T.|.+XXX`.~.U.j.j g p X X         - (.`.a @ @ @ > > < ",
"O O > 1 1 1 1 2 2 2 @ O O O O O O O : > > < < < 1 < : : 1 2 2 2 > @ + : < , f @.f.A.I._.+XXXXX}.U.n.z.>.p o X l.#Xd.; @ ; 2 > @ ",
"> > < 1 < 2 2 2 2 1 @ + > > > + O O : > > > > > 1 2 2 2 2 2 2 2 2 1 @ @ @ @ @ ; ; : , y O.p.c.G.(.{.XX#X}.U.,._ _.~.6 + ; 2 > @ ",
"1 1 > > 1 1 < < < > ; ; < < > + O @ ; ; ; ; ; ; > < < 1 2 1 1 1 1 < @ + + @ ; > > > > < < < < 4 t v S -.G.[.#XU.U.`.q @ : 1 > ; ",
"< < @ + 2 > O O O O > < < ; O O @ > + O O O O O O O O : 2 : @ @ @ @ + + @ : > > > > < < 1 2 2 2 : ; < < 4 m Z.|.XXL.= < 1 @ ; > ",
"@ @ + O @ @ O . @ > ; @ @ + O O + @ O O O O O O O O O + @ + + + + @ ; @ + @ ; > > < < > : 2 2 2 1 1 2 1 < > 3 S ] r ; : : : : > ",
"O O O O + + + @ : 2 : + O O O O O O O O O O O O O O O O + O O + @ ; > : @ @ @ > < 1 1 > : 2 2 < 1 2 1 > : > > : ; : > ; ; > > > ",
"O O O + : > > 2 2 2 2 1 O O O O O O O O O O O O O O . @ < @ O + > 1 2 2 2 @ ; < < 1 2 2 < 1 > @ @ @ @ @ @ > > : @ @ > < < < > > ",
"> > @ O @ : > < 1 1 2 1 O O O O @ : : : : + O O @ : : : > : : : > > 1 2 2 > > < 1 1 2 < > < < > : @ + ; > > > ; : : ; > < > > < ",
"2 2 : O O @ > > > > 2 1 O O O O ; < < < 1 ; + + : < 1 > @ > 1 1 > : < 2 2 1 < < < < < > ; > 1 2 > : @ > < < : @ < > @ > < ; > < ",
"< 2 < : : @ + 1 2 2 2 1 O O + > : + + @ < < < < > ; < > @ < 1 1 2 2 2 2 2 ; : < : : < < < @ @ @ @ @ < : @ @ @ @ < < < < < < > ; ",
"> 2 > ; ; ; : 2 2 1 1 > O O O : ; @ @ ; : > < 1 > : > > > > < < 1 1 1 1 > ; : < > > < > > : ; ; @ @ < > ; ; ; : 1 2 1 2 1 < > : ",
"@ < @ O O : 2 2 1 > > : O O O O @ > < > O ; > < < < ; : < > > > > > > ; @ : > < < < > ; @ < < < @ @ < < < < < 1 2 2 < 2 2 > < < ",
"@ > : ; ; > < < > @ @ + O . O O + @ @ @ ; @ @ > > > > > > > > < ; @ + + @ : : ; ; : < > : ; ; ; : : > < < > > > 1 1 > > < < > : "
};
