/* XPM */
static char *d714db64360f430b94ee46d1f7002f32[] = {
/* columns rows colors chars-per-pixel */
"64 64 202 2 ",
"   c #070707",
".  c #0C0206",
"X  c #0C0509",
"o  c #0B0A0C",
"O  c #100107",
"+  c #150209",
"@  c #1C030D",
"#  c #130B0C",
"$  c #190B0D",
"%  c #161406",
"&  c #15120B",
"*  c #1A160C",
"=  c #1F1C0E",
"-  c #0F0D11",
";  c #1E0611",
":  c #120E12",
">  c #1C0B11",
",  c #131114",
"<  c #1B1313",
"1  c #1E1913",
"2  c #16151B",
"3  c #1B161A",
"4  c #17181D",
"5  c #1B1B1C",
"6  c #21030F",
"7  c #250311",
"8  c #2B0313",
"9  c #220C14",
"0  c #280D17",
"q  c #260C18",
"w  c #2D0B19",
"e  c #330316",
"r  c #350418",
"t  c #3C061C",
"y  c #330B1B",
"u  c #221314",
"i  c #281716",
"p  c #221A13",
"a  c #23161B",
"s  c #2B121A",
"d  c #231B1D",
"f  c #2A1919",
"g  c #27220D",
"h  c #2A2215",
"j  c #22231F",
"k  c #2C241B",
"l  c #33271A",
"z  c #181A20",
"x  c #2F1721",
"c  c #271A21",
"v  c #2C1C21",
"b  c #331D24",
"n  c #301F28",
"m  c #242423",
"M  c #2C2325",
"N  c #2E2A24",
"B  c #2B2729",
"V  c #2A2A29",
"C  c #322F27",
"Z  c #3A2D22",
"A  c #352429",
"S  c #322C2B",
"D  c #3F3325",
"F  c #35322D",
"G  c #3A342B",
"H  c #342D32",
"J  c #392B32",
"K  c #353333",
"L  c #3B3434",
"P  c #373934",
"I  c #3B3A34",
"U  c #3B3639",
"Y  c #3E3D3C",
"T  c #40071E",
"R  c #423526",
"E  c #483928",
"W  c #4A3C2C",
"Q  c #423637",
"!  c #463A37",
"~  c #44373A",
"^  c #423E3C",
"/  c #3F453C",
"(  c #4E412A",
")  c #4C4435",
"_  c #44443D",
"`  c #4C493E",
"'  c #594930",
"]  c #5D4C3D",
"[  c #65533D",
"{  c #473B42",
"}  c #454243",
"|  c #4A4443",
" . c #4B4C43",
".. c #4A4448",
"X. c #474848",
"o. c #4F4D4B",
"O. c #514948",
"+. c #524B4C",
"@. c #4F514A",
"#. c #56544B",
"$. c #52584F",
"%. c #595B4E",
"&. c #544F51",
"*. c #565352",
"=. c #585653",
"-. c #5D5C54",
";. c #5E5C5A",
":. c #655845",
">. c #625C57",
",. c #60565C",
"<. c #625E5C",
"1. c #5E6155",
"2. c #5F6159",
"3. c #62625B",
"4. c #67665B",
"5. c #66695A",
"6. c #6B6A5F",
"7. c #746E59",
"8. c #5E6060",
"9. c #676161",
"0. c #686662",
"q. c #6B6C63",
"w. c #6C6B68",
"e. c #726C6C",
"r. c #6D7365",
"t. c #707167",
"y. c #73736C",
"u. c #747A6B",
"i. c #766E71",
"p. c #777571",
"a. c #797471",
"s. c #7C7B74",
"d. c #7C7779",
"f. c #7E7A78",
"g. c #807D76",
"h. c #817C7A",
"j. c #7F8175",
"k. c #7E8178",
"l. c #8E886F",
"z. c #8E8B73",
"x. c #85837C",
"c. c #89847F",
"v. c #87897E",
"b. c #898A7C",
"n. c #938E73",
"m. c #8F917B",
"M. c #95967F",
"N. c #878781",
"B. c #8A8682",
"V. c #878980",
"C. c #8C8B83",
"Z. c #8B8D8B",
"A. c #908D85",
"S. c #938E8A",
"D. c #8F9082",
"F. c #949584",
"G. c #9C9C85",
"H. c #94928A",
"J. c #96998D",
"K. c #999C8C",
"L. c #939591",
"P. c #969890",
"I. c #9D9C94",
"U. c #9C9B98",
"Y. c #A09F99",
"T. c #9EA098",
"R. c #A2A187",
"E. c #A3A48A",
"W. c #A2A396",
"Q. c #A9AA93",
"!. c #A4A599",
"~. c #A6A999",
"^. c #AAAD9D",
"/. c #A5A6A0",
"(. c #A6A8A3",
"). c #ABACA4",
"_. c #AEADA9",
"`. c #AFB3A5",
"'. c #B2B3A4",
"]. c #B7BAA7",
"[. c #B2B2AC",
"{. c #B7BAAD",
"}. c #BABCAC",
"|. c #B7B9B4",
" X c #BCBEB5",
".X c #BCC0B5",
"XX c #BCC0BB",
"oX c #C1C4B3",
"OX c #C3C5BA",
"+X c #C5CABB",
"@X c #C8CDBE",
"#X c #C6C8C1",
"$X c #C6CBC3",
"%X c #CCD2C5",
"&X c #D1D5C3",
"*X c #D4D9C6",
"=X c #D5DACB",
"-X c #DBE2CF",
";X c #DCE3D8",
":X c #E0E6D9",
">X c #E7EEE1",
",X c #ECF4E6",
/* pixels */
"@ @ @ @ @ @ @ @ @ @ @ @ @ @ @ @ @ @ @ @ @ @ @ @ @ @ @ @ @ @ @ @ @ @ @ @ @ @ @ @ @ @ @ @ @ @ @ @ @ @ @ 8 r t T t 7 @ @ @ @ @ @ @ ",
"8 8 8 8 @ @ @ @ @ @ @ @ @ @ @ @ @ @ @ @ @ @ @ @ @ @ @ @ @ @ @ @ @ @ @ @ @ @ @ @ 7 7 8 8 8 6 @ @ @ @ @ 7 8 e t t 7 7 8 7 @ @ @ @ ",
"t t t t 6 @ @ @ @ @ @ @ @ @ @ @ @ @ @ @ @ @ @ @ @ @ @ @ @ @ @ @ @ @ @ @ @ @ @ @ 8 r t t t 7 @ @ @ @ @ @ @ @ 8 t 7 8 t 8 @ @ @ @ ",
"t r t t 6 8 r 7 @ @ @ 7 r 8 @ @ @ @ @ @ @ @ @ @ @ @ @ @ @ @ @ @ @ @ @ @ @ @ @ @ 6 7 7 r t 7 @ @ @ @ @ 7 e e e r e e r t t t r r ",
"t t t t 7 e t 8 7 @ @ 7 t e 7 6 @ @ @ @ @ 6 7 7 7 @ @ @ @ @ @ @ 7 7 @ @ @ @ @ @ @ @ @ 8 r 6 @ @ @ @ @ 7 8 8 8 8 8 8 8 e r r t T ",
"t t t t r t t t r @ @ 7 t t t 7 @ @ @ @ @ 8 r t 8 @ @ @ @ @ @ @ e t 6 @ @ @ @ @ @ @ @ @ @ @ @ @ @ @ @ @ @ @ @ @ @ @ @ @ @ @ e T ",
"t t t t r 8 8 t t r r e 8 8 8 r 8 @ 7 e r 8 7 8 7 @ @ @ @ @ @ @ 8 t r 8 @ @ @ @ @ @ @ @ @ @ @ @ @ @ @ @ @ @ @ @ @ @ @ @ 6 8 e t ",
"t t t t r 8 7 t t t t r 6 @ 7 t 8 @ 8 r t 8 @ @ @ 6 6 6 6 @ @ @ 7 e t e 7 @ @ @ @ @ @ 6 6 7 6 @ @ @ @ @ @ @ @ @ 6 6 6 6 7 r e e ",
"8 r 8 8 t t e r e 8 e e 7 7 7 6 @ @ @ 6 6 @ 6 7 7 7 7 7 7 6 @ @ @ 7 e t t 7 @ @ @ @ @ 7 e t e @ @ @ @ @ @ @ @ @ e e e e r t 8 6 ",
"7 7 7 8 t r 8 7 7 7 8 8 7 7 7 7 6 @ @ @ @ @ 6 7 7 7 7 7 7 7 6 @ @ @ 7 e t e 8 8 e 8 8 8 7 t r 8 7 @ @ @ @ @ @ @ 7 7 7 7 7 8 7 @ ",
"@ @ 7 7 e 8 7 @ 6 7 7 7 7 7 7 7 7 @ @ @ 6 @ 6 7 7 7 7 7 7 7 7 @ @ @ @ 7 r t t t T t t 8 @ e t t 8 6 @ 6 6 6 6 6 6 6 6 @ @ @ @ @ ",
"7 @ @ 6 6 6 @ @ 6 7 7 6 @ 6 6 6 @ @ @ 6 7 7 7 7 7 6 6 6 6 @ $ $ @ @ @ 0 y 7 7 r t T t 8 @ 6 7 r t r @ 8 e e r t t t t 7 @ @ @ @ ",
"7 @ @ @ @ @ @ @ 6 7 6 @ @ 7 7 7 7 @ @ 6 7 7 7 7 7 $ + @ $ & % % * Z E :.R + 7 e r e r 8 @ @ 7 8 e 8 @ 7 8 8 r t t t e 7 @ @ @ @ ",
"@ @ @ @ @ @ @ @ @ @ @ @ @ 7 e e 7 @ @ 6 7 6 @ @ + % & & g h 1 & k ' R l * O 7 e 7 @ @ @ @ @ @ 6 @ @ @ @ @ @ 7 r t r @ @ @ @ @ @ ",
"@ @ 7 e e e e 6 @ @ 8 8 @ 6 7 7 6 @ @ @ 6 9 u s h = * p W [ ( R [ p @ 7 + @ @ 7 @ @ @ @ @ @ 7 r r r r 7 @ @ 6 7 7 7 @ @ @ @ @ @ ",
"6 6 7 8 8 8 8 6 @ @ 7 7 @ @ @ @ @ @ @ @ @ Z [ ) :.W ] E k h $ u h # 8 8 @ @ @ 7 7 7 7 7 7 7 8 t t t t 8 7 7 7 @ @ @ @ @ @ @ @ @ ",
"e e 7 @ @ @ @ @ @ @ @ @ @ @ @ @ @ @ @ @ @ i h < < $ k * . + > a < @ @ @ @ @ 7 e e e e t t t t r r t t t r t 8 @ @ @ @ @ @ @ @ @ ",
"7 7 @ + + + + + + + + @ @ @ @ @ @ + + @ @ @ + + @ $  .1.-.q.q.2.t.>.J 9 7 8 8 r r r r r t 8 7 7 r t t t t 8 7 @ @ @ @ @ @ @ @ @ ",
"+ + + @ + + @ @ @ @ @ + + + @ @ @ @ @ @ @ @ @ @ 6 7 M I 3.6.z.E.F.K.~.0.q e e e e e e r e 7 6 7 r t t t t 7 6 6 7 7 7 7 6 @ @ @ ",
"@ @ + + + + @ @ @ + + + + + @ r t t t e @ + @ @ 8 y v @.q.o.I >.n.R.Q.+X;.> @ 6 @ 7 e t t e t t 8 8 t t t e e e t t t t r @ @ @ ",
"@ @ @ @ @ @ + + + + 7 8 8 8 8 t t 8 t t 8 8 8 8 8 x 2.r.u.m.M.E.G.z.l.'.v.G + @ @ 6 e r t r r t 8 7 8 8 8 7 7 8 8 8 e t t 8 7 @ ",
"@ @ @ @ @ + @ @ @ @ e t t t t t 8 @ r t T t t t w 4.f.p.;.L ` 7.z.G.b.~.3.k + @ @ 6 7 e e e e e r e @ @ @ @ @ @ @ @ @ r T T 8 @ ",
"+ + @ + + + @ 7 e e 7 7 r r r r 8 @ 7 8 t t t t ! ].!.v.3._ p.-.I.).v.w.< @ 7 e 7 7 7 8 8 8 8 8 e e @ 7 7 e 7 @ @ @ @ r t r 7 @ ",
"+ + + @ 6 6 6 7 8 7 @ @ 7 7 8 e 8 7 7 7 e e e 8 Q j.s.D.K.V._.=.).[.T.;.O 6 7 8 7 7 7 7 7 7 7 7 8 8 6 7 7 e 7 @ 6 6 6 e r 8 7 @ ",
"+ + + @ e e e @ @ @ @ @ @ @ @ e e e e 8 @ @ a +.y.B.^.!.H.$X Xy.k.|.Y._ 3 @ @ @ 7 7 7 7 7 6 @ @ 7 7 7 6 6 7 7 @ 7 7 7 7 7 @ @ @ ",
"e e 7 @ e 8 6 7 7 + + @ + + @ @ 6 6 6 @ + < L.;X*XoXC.a.B.{.XXN.C.w.q.b.J.S @ @ 6 6 6 7 7 7 7 7 7 6 6 6 @ 6 @ @ 6 6 6 6 6 @ @ @ ",
"r t 7 @ 8 7 @ 8 7 @ @ + @ @ + + + + + + + S OX*X>X-X].j.Y K X.Y K V 5 W.=Xy.+ @ @ @ @ 7 7 7 7 7 6 @ @ @ @ @ @ @ @ @ @ @ @ @ @ @ ",
"@ @ @ + @ @ @ @ 6 e 6 + + @ + + @ @ @ @ + H I.OX=X}.!.oX+X8./.;.5 /.L.3.W.w.< + @ @ @ @ @ @ @ @ @ @ @ @ @ @ @ @ @ @ @ @ @ @ @ @ ",
"7 7 7 7 7 6 + + 6 e 8 7 @ + + + + @ + + M d.C.H.c.i.H.}.}.y.!.`.Y J.I.<.).OX| ; 8 e e 7 @ 8 8 @ 8 8 @ 8 8 6 7 8 8 e e 8 7 @ @ @ ",
"e e e e r 7 @ @ 7 e e 8 @ @ @ @ @ + + + *.*X@X&XA.e.N.x.C. X%X.XZ.C.f.N.}.=XC.c r T T e 7 t r 7 t t 7 e t 6 7 e t t t t e 7 @ @ ",
"@ @ @ @ e e e e e e 7 6 e e e e 7 + + @ 3.&X,XoX;.f.!.B.}.$XU.x.).OX*.*.'.~.v.=.~ y t t t t t t t t t 8 6 @ @ 6 6 8 t t t t 8 @ ",
"@ 6 7 7 7 7 7 7 7 7 @ @ 7 e e 8 6 + + > K.}.'.+.} h.!.S.W.OX$XU.[.-.# > | x._.'.v.M >.+.y t t t t t t e 8 @ @ @ @ 7 e e e r 8 @ ",
"6 e e e @ + + + + + + @ @ 7 e @ @ @ @ _ K.'.g.m H a.H.'.^.@XOXU.C.> + 7 7 { ).}. .y.^.~.+.7 t t t t t t t 6 @ @ @ @ @ @ 6 7 7 @ ",
"@ @ @ @ @ + @ + + + + @ 8 e e 8 8 8 0 1.u.5.! < &.+.c.oX+X.X(.f.w.+ 7 8 e 8 a #.u.J.h.w.;.a 7 t t t t t t 6 7 e r 8 @ @ @ 6 6 @ ",
"@ 6 7 7 7 @ + @ @ @ + @ e r r r r r w -.5.) 1 M f.*.q.I.=XP.I I 5 B 7 8 r e 7 9 M 3 H K Y M 6 t t t t t t 7 7 r t r 8 7 6 @ @ @ ",
"7 t t t t 8 + @ @ @ + @ e e e e r e q I P p X ^ e.F _ 3.w.3.N I 5 _ < 6 e 8 7 @ @ @ @ @ 9 > e t r r t t t 8 7 8 7 e t 8 7 @ @ @ ",
"e t t t t r 7 @ + + + a b s 6 6 6 6 : 5 5 . > <.U , G %.5. ._ %.C _ < 6 8 7 7 7 7 8 8 r t e e e 8 8 7 8 8 7 7 7 7 7 8 7 6 @ 7 8 ",
"t t t r t t r @ + 9 +.y.C.v._ u + + k ;.(.S #.0.2 o 3 I _ I F C N N , + 7 7 8 8 e r r t r e 8 7 7 6 + @ @ 7 8 7 6 @ @ @ @ @ 7 r ",
"r r r r r t t @ + d V 3 L e.^.K.L < F x./.0.^ H : 4 4 , o ` C p ` 5 o o # 8 e e t t t 8 @ @ @ @ @ @ @ @ @ e e e 6 @ @ @ @ @ 7 r ",
"7 7 7 7 e e 8 7 7 6 @ 6 7 n e.S.y.F L (.I.} X - 4 5 5 2 : #. ., #.$.- : , : 8 e t t 8 6 + + + + @ @ @ 6 7 7 7 7 6 @ @ 7 7 7 7 7 ",
"O O O + e 7 6 e r r r r T 8 c ....S d | q.d X - 2 2 2 4 : F r._ F j o , 4 , # ; r r @ + @ + @ @ + @ @ 8 e @ @ @ @ @ 6 8 r r 7 6 ",
"O O O + e e e e r r r r t t r w 3 G , . . X : 4 z 4 : , , N 5.r.&   o : , 5 4 2 @ @ @ + + + + + + @ e t t t 8 @ @ 7 e e r r t t ",
"O O O + 7 7 7 7 7 7 7 8 t t t t f R O + O # 2 5 m 5 4 o o j u.5.& o - : 4 2 m 5 X + @ + @ 6 6 6 6 7 e t t e 7 @ @ 6 8 e e 8 e r ",
"O O O O O O O O O O O @ e t t y Z k 7 8 @ X m V.`.3.2 : o o / P o o o , : } '.J.3 . @ @ @ e r e r r r t t @ @ @ @ @ @ 8 e 6 @ @ ",
"8 e e e e 6 . O O O O O @ @ @ 9 R < 8 t r 7 P oX.X^.P o o o   o o o o - 2 ,.).$XI + 8 8 8 e r r t t t t t @ @ @ 7 8 8 e e 7 7 7 ",
"r r t t T 8 @ O O O O O O O . p R O 8 r t r J B.f.B.} o o o o o o - o o m N.H.e.d + 8 8 8 8 8 8 r t t t r @ @ 6 e e e e e 7 7 7 ",
"7 + 7 r t t t @ O O O O O O O Z k 7 e r r y 9.v.W.e.5 o o o - : : - o o y.=XW...X + @ @ @ @ @ @ @ 6 e r e @ 7 e 8 7 7 7 7 7 7 7 ",
"@ O @ 7 r t t @ O O O + 7 7 > R < 6 7 7 7 ~ H.W.:Xv.o o o o - : o o o , |.%XC.B . + @ @ @ 7 7 7 7 8 e r e @ 7 r e e r 8 7 7 7 6 ",
"O O O + 8 r r @ O + + @ e e f R O @ 6 6 @ | N.}.>Xp.X o o o o o o : o , !.^.e.d O @ + @ @ 8 e r e e e r e @ 7 r e r t 8 7 @ 6 6 ",
"O O O O + + + O @ e e 8 + @ Z k @ 7 e e e ~ x.oXC.a 6 @ o o o o o o   X 4.~.e.d O @ + 7 e 7 7 e 7 7 e t t t t t 6 @ @ @ @ @ 8 t ",
"O O @ 6 6 6 6 7 8 t 8 6 O + D < @ @ 8 e 8 L x.g.M @ 7 8 7 + X o   . O @ A w.} , O @ @ 7 e 7 8 e 8 8 e t t t t t @ @ @ @ @ 8 8 e ",
"O O 7 r r r r t t t @ O O $ Z X . O 7 7 7 2 V B @ e 7 7 r r e 7 @ + + 8 w 5 , - O @ @ 6 7 e r r r r r t t r t t @ @ 7 @ 6 t 8 @ ",
"8 8 e r e t t t t r @ + 8 7 # . O O 7 7 7 2 m , @ t t t t t T t t e @ @ 9 S 3.} 3 6 7 8 e e t t t t t t t t t r 7 6 @ @ 6 t 8 @ ",
"r r 8 8 r r e e e 7 6 6 e 7 X . + @ 6 6 A P.$XP + e e r t r e e e e @ + > D.*X}.9.v 7 8 r r t t r r t t t t t r 7 6 @ @ 8 e 8 6 ",
"e e @ + t 8 O O O O 7 e e ; . . @ 7 + > -.+X%XF . O O 7 t 7 @ @ @ @ @ + > 3.q.s.^.C.=.Q 8 t t t 7 7 e t t t t t @ + @ r r @ 6 7 ",
"@ @ + O @ @ O . @ e 6 @ @ + . O + @ O M -.6.=.o . O O + @ + + + + @ 6 @ + O O > M S B d @ t t t r r t r e e e 8 7 7 7 7 7 7 7 7 ",
"O O O O + + + @ 7 t 7 + O O O O O O O . . . . . O O O O @ O O + @ 6 8 7 @ @ @ 8 8 8 e 7 7 t t e r t r 8 7 7 7 7 7 7 7 6 6 8 8 7 ",
"O O O + 7 7 7 t t T t e O O O O O O O O O O O O O O . @ e @ O + 7 r t t t @ 6 e e r t t e r 7 @ @ @ @ @ @ 7 7 7 @ @ 7 e e e 8 7 ",
"8 8 @ O @ 7 7 e r r t r O O O O @ 7 7 7 7 + O O @ 7 7 7 7 7 7 7 7 7 t t t 8 7 e r r t e 7 e e 8 7 @ + 6 7 e 7 6 7 7 6 e e 7 8 e ",
"t t 7 O O @ 7 7 7 8 t r O O O + 6 e e e r 6 + + 7 e r 8 @ e r r 7 7 e t t r e e e e e 7 6 8 r t 8 7 @ 7 e e 7 @ e 8 @ 8 e 6 7 e ",
"e t e 7 7 @ + r t t t r O O + 8 7 + + @ e e e e 7 6 e 8 @ e r r t t t t t 6 7 e 7 7 e e e 6 @ @ @ 6 e 7 @ @ @ @ e e e e e e 7 6 ",
"7 t 7 6 6 6 7 t t r r 8 O O + 7 6 @ @ 6 7 8 e r 8 7 7 7 7 8 e e r r t e 8 6 7 e 8 7 e 8 7 7 6 6 @ @ e 7 6 6 6 7 r t r t r e 7 7 ",
"@ e @ O O 8 t t r 7 7 7 O O O O @ 7 e 7 O 6 7 e e e 6 7 e 8 7 7 7 7 7 6 @ 7 8 e e e 7 6 @ e e e @ @ e e e e e r t t e t t 7 e e ",
"@ 8 7 6 6 7 e e 7 @ @ + O O O O + @ @ @ 6 @ @ 8 8 8 8 8 8 7 8 e 6 @ @ @ @ 7 7 6 6 7 e 8 7 6 6 6 7 7 8 e e 8 8 8 r r 8 8 e e 7 7 "
};
