/* XPM */
static char *fb27046ddc1d487a9a167e8670cd4a90[] = {
/* columns rows colors chars-per-pixel */
"64 64 200 2 ",
"   c #070707",
".  c #0C0206",
"X  c #0C0609",
"o  c #0B0A0C",
"O  c #100107",
"+  c #150209",
"@  c #1C030D",
"#  c #140C0D",
"$  c #1B090F",
"%  c #161406",
"&  c #14120B",
"*  c #1B150D",
"=  c #1C180F",
"-  c #0F0C10",
";  c #1D0610",
":  c #110E12",
">  c #1C0B11",
",  c #131115",
"<  c #1B1314",
"1  c #16151B",
"2  c #1B161A",
"3  c #16181C",
"4  c #1B1B1D",
"5  c #21030F",
"6  c #201C0F",
"7  c #250311",
"8  c #2B0313",
"9  c #220C14",
"0  c #2A0916",
"q  c #2F0C1A",
"w  c #330316",
"e  c #350418",
"r  c #3C061C",
"t  c #32081A",
"y  c #221315",
"u  c #221A15",
"i  c #281B13",
"p  c #21161A",
"a  c #2B131C",
"s  c #231D1C",
"d  c #32141A",
"f  c #26230E",
"g  c #2B2215",
"h  c #26201E",
"j  c #2C251B",
"k  c #32241C",
"l  c #39221E",
"z  c #231C22",
"x  c #2D1D25",
"c  c #321A25",
"v  c #381F27",
"b  c #391E29",
"n  c #242222",
"m  c #2A2324",
"M  c #2D2A24",
"N  c #2F272A",
"B  c #2B2A2B",
"V  c #352D25",
"C  c #392D21",
"Z  c #372629",
"A  c #332D2D",
"S  c #3B2A2F",
"D  c #3E3224",
"F  c #35322C",
"G  c #3A332C",
"H  c #342E33",
"J  c #3D2C32",
"K  c #353333",
"L  c #3B3534",
"P  c #353830",
"I  c #3B3B34",
"U  c #3B363A",
"Y  c #3D3C3B",
"T  c #40071E",
"R  c #423526",
"E  c #473A26",
"W  c #46372A",
"Q  c #493D2C",
"!  c #453D3B",
"~  c #3F453D",
"^  c #4E412E",
"/  c #43433D",
"(  c #49473B",
")  c #4C493E",
"_  c #5B4B36",
"`  c #65533C",
"'  c #464242",
"]  c #4B4544",
"[  c #4B4B44",
"{  c #474048",
"}  c #4C4449",
"|  c #474848",
" . c #4F4B4C",
".. c #504D42",
"X. c #524D4B",
"o. c #4F514A",
"O. c #55544B",
"+. c #53584F",
"@. c #595B4F",
"#. c #544F51",
"$. c #555352",
"%. c #595652",
"&. c #5C5B55",
"*. c #5F575D",
"=. c #5F5C5A",
"-. c #675340",
";. c #685641",
":. c #615E4E",
">. c #625E5A",
",. c #5D6054",
"<. c #5F6158",
"1. c #62635B",
"2. c #68655F",
"3. c #666959",
"4. c #6B6A5E",
"5. c #746E5A",
"6. c #5E6061",
"7. c #666360",
"8. c #686462",
"9. c #6B6C63",
"0. c #6D6C69",
"q. c #716B6C",
"w. c #6E7365",
"e. c #73726C",
"r. c #757A6B",
"t. c #766F71",
"y. c #767673",
"u. c #797573",
"i. c #7C7B74",
"p. c #7E7B78",
"a. c #807E77",
"s. c #827D7C",
"d. c #7F8075",
"f. c #7F8179",
"g. c #8D886F",
"h. c #808275",
"j. c #8E8B74",
"k. c #84827B",
"l. c #88857F",
"z. c #87887E",
"x. c #898A7D",
"c. c #948D74",
"v. c #8F917B",
"b. c #95967F",
"n. c #898681",
"m. c #878A80",
"M. c #8C8B83",
"N. c #8D8E8A",
"B. c #908D86",
"V. c #938F8A",
"C. c #8F9283",
"Z. c #9C9C84",
"A. c #94938A",
"S. c #969989",
"D. c #999B8C",
"F. c #939591",
"G. c #989694",
"H. c #959890",
"J. c #9C9C94",
"K. c #A09F93",
"L. c #A09F9B",
"P. c #9EA098",
"I. c #A3A186",
"U. c #A3A48B",
"Y. c #A2A396",
"T. c #A6A897",
"R. c #A9A995",
"E. c #A5A599",
"W. c #A6A999",
"Q. c #AAAC9C",
"!. c #A4A5A0",
"~. c #A6A8A2",
"^. c #ACACA4",
"/. c #AFADA9",
"(. c #B0AFAE",
"). c #AFB3A5",
"_. c #B2B3A4",
"`. c #B7BAA6",
"'. c #B3B5A9",
"]. c #B7B9AB",
"[. c #BABDAD",
"{. c #BBBEB4",
"}. c #BABCB8",
"|. c #BCC0B5",
" X c #BFC1B8",
".X c #C1C4B4",
"XX c #C3C6BB",
"oX c #C5CABB",
"OX c #C9CDBF",
"+X c #D0D4BF",
"@X c #C3C5C0",
"#X c #C7CBC3",
"$X c #CACDC2",
"%X c #CDD3C6",
"&X c #D4D8C6",
"*X c #D5DACC",
"=X c #DCE3D4",
"-X c #E0E6DA",
";X c #E7EEE1",
":X c #ECF3E6",
/* pixels */
"@ @ @ @ @ @ @ @ @ @ @ @ @ @ @ @ @ @ @ @ @ @ @ @ @ @ @ @ @ @ @ @ @ @ @ @ @ @ @ @ @ @ @ @ @ @ @ @ @ @ @ 8 e r T r 7 @ @ @ @ @ @ @ ",
"8 8 8 8 @ @ @ @ @ @ @ @ @ @ @ @ @ @ @ @ @ @ @ @ @ @ @ @ @ @ @ @ @ @ @ @ @ @ @ @ 7 7 8 8 8 5 @ @ @ @ @ 7 8 w r r 7 7 8 7 @ @ @ @ ",
"r r r r 5 @ @ @ @ @ @ @ @ @ @ @ @ @ @ @ @ @ @ @ @ @ @ @ @ @ @ @ @ @ @ @ @ @ @ @ 8 e r r r 7 @ @ @ @ @ @ @ @ 8 r 7 8 r 8 @ @ @ @ ",
"r e r r 5 8 e 7 @ @ @ 7 e 8 @ @ @ @ @ @ @ @ @ @ @ @ @ @ @ @ @ @ @ @ @ @ @ @ @ @ 5 7 7 e r 7 @ @ @ @ @ 7 w w w e w w e r r r e e ",
"r r r r 7 w r 8 7 @ @ 7 r w 7 5 @ @ @ @ @ 5 7 7 7 @ @ @ @ @ @ @ 7 7 @ @ @ @ @ @ @ @ @ 8 e 5 @ @ @ @ @ 7 8 8 8 8 8 8 8 w e e r T ",
"r r r r e r r r e @ @ 7 r r r 7 @ @ @ @ @ 8 e r 8 @ @ @ @ @ @ @ w r 5 @ @ @ @ @ @ @ @ @ @ @ @ @ @ @ @ @ @ @ @ @ @ @ @ @ @ @ w T ",
"r r r r e 8 8 r r e e w 8 8 8 e 8 @ 8 w e 7 7 8 7 @ @ @ @ @ @ @ 8 r e 8 @ @ @ @ @ @ @ @ @ @ @ @ @ @ @ @ @ @ @ @ @ @ @ @ 5 8 w r ",
"r r r r e 8 7 r r r r e 5 @ 7 r 8 @ 8 e r 8 @ @ @ 5 5 5 5 @ @ @ 7 w r w 7 @ @ @ @ @ @ 5 5 7 5 @ @ @ @ @ @ @ @ @ 5 5 5 5 7 e w w ",
"8 e 8 8 r r w e w 8 w w 7 7 7 5 @ @ @ 5 5 @ 5 7 7 7 7 7 7 5 @ @ @ 7 w r r 7 @ @ @ @ @ 7 w r w @ @ @ @ @ @ @ @ @ w w w w e r 8 5 ",
"7 7 7 8 r e w 7 7 7 8 8 7 7 7 7 5 @ @ @ @ @ 5 7 7 7 7 7 7 7 5 @ @ @ 7 w r w 8 8 w 8 8 8 7 r e 8 7 @ @ @ @ @ @ @ 7 7 7 7 7 8 7 @ ",
"@ @ 7 7 w 8 7 @ 5 7 7 7 7 7 7 7 7 @ @ @ 5 @ 5 7 7 7 7 7 7 7 7 @ @ @ @ 7 e r r r T r r 8 @ w r r 8 5 @ 5 5 5 5 5 5 5 5 @ @ @ @ @ ",
"7 @ @ 5 5 5 @ @ 5 7 7 @ @ 5 5 5 @ @ @ 5 7 7 7 7 7 5 @ 9 9 @ @ @ # % @ 7 w 7 7 e r T r 8 @ 5 7 e r e @ 8 w w e r r r r 7 @ @ @ @ ",
"7 @ @ @ @ @ @ @ 5 7 5 @ @ 7 7 7 7 @ @ 5 7 7 7 7 5 @ @ R -.W C * % % % $ 7 @ $ w e w e 8 @ @ 7 8 w 8 @ 7 8 8 e r r r w 7 @ @ @ @ ",
"@ @ @ @ @ @ @ @ @ @ @ @ @ 7 w w 8 @ @ 5 7 5 @ @ @ @ @ * k R _ j % = g f % % % @ 7 @ @ @ @ @ @ 5 5 5 @ @ @ @ 7 e r e @ @ @ @ @ @ ",
"@ @ 7 w w w w 5 @ @ 8 8 @ 5 7 7 5 @ @ @ 5 @ 5 8 w w 8 8 8 8 i ` R ^ ` Q i * 6 g y y > @ @ @ 7 e e e e 7 @ @ 5 7 7 7 @ @ @ @ @ @ ",
"5 5 7 8 8 8 8 5 @ @ 7 8 @ @ @ @ @ @ @ @ @ @ 5 8 w w w e r r 0 g < # g j E _ Q ;.^ ` V @ 7 7 8 r r r r 8 7 7 7 @ @ @ @ @ @ @ @ @ ",
"w w 7 @ @ @ @ @ @ @ @ + @ @ @ @ @ @ @ @ @ @ @ @ @ 5 w w 7 7 7 < p > + . * j * y y g y 8 r r r e e r r r e r 8 @ @ @ @ @ @ @ @ @ ",
"7 7 @ + + + + + @ @ @ @ + + + @ + + + @ @ @ @ @ @ @ 7 7 9 S >.e.<.9.4.&.<.[ ; 8 8 7 7 e r 8 7 7 e r r r r 8 7 @ @ @ @ @ @ @ @ @ ",
"+ + + @ + + @ @ @ @ @ + + + @ @ @ @ @ @ @ @ @ @ @ 7 @ > 7.W.D.S.U.j.4.1.I n 7 w w w e e w 7 5 7 e r r r r 7 5 5 7 7 7 7 5 @ @ @ ",
"@ @ + + + + @ @ @ + + + + + @ e r r r w @ @ + @ 8 r 9 &.oXR.I.c.:.I  .9.o.s @ 5 5 7 w r r w r r 7 8 r T r w w w r r r r e @ @ @ ",
"@ @ @ @ @ @ + + + @ 7 8 8 8 8 r r w r r 8 8 8 8 8 0 G k._.g.j.Z.U.b.v.r.w.1.2 + @ 5 8 e r e e r 8 7 8 8 8 7 7 8 8 8 w r r 8 7 @ ",
"@ @ @ @ @ + @ @ @ + w r r r r T 8 @ e r T r r r 8 @ Z 1.E.x.Z.j.5.) L =.u.p.2.@ @ 5 7 w w w w w e w @ @ @ @ @ @ @ @ @ e T T 8 @ ",
"+ + @ + + + @ 7 w w 5 7 e e e e 8 @ 7 8 r r r r r e 9 < 9.z.^.J.&.y./ 1.x.E.`.L 5 7 7 7 8 8 8 8 w w @ 7 7 w 7 @ @ @ @ e r e 7 @ ",
"+ + + @ 5 5 5 7 8 7 @ + 7 7 8 w 8 7 7 7 w w w w w w + + =.P.(.^.%.^.m.D.C.i.h.L @ 7 7 7 7 7 7 7 w 8 5 7 7 w 7 @ 5 5 5 w e 8 7 @ ",
"+ + + @ w w w @ @ @ @ @ @ @ + w w w w 8 @ + + @ @ @ @ p / L.}.f.e.{.#XA.Y.Q.n.e.X.a 7 7 7 5 @ @ 7 7 7 5 5 7 7 @ 7 7 7 7 7 @ @ @ ",
"w w 7 + w 8 5 7 7 + @ @ + + @ @ 5 5 5 @ @ + + + + + A D.x.9.0.M.n.}.].n.u.M..X&X=XF.9 7 7 7 7 7 7 5 5 @ @ 5 @ @ 5 5 5 5 5 @ @ @ ",
"e r 7 + 8 7 @ 8 7 @ @ + @ @ + + + + + + + @ @ @ @ + e.*XP.4 B K Y | K Y d.`.=X;X&XXXN @ 7 7 7 7 5 @ @ @ @ @ @ @ @ @ @ @ @ @ @ @ ",
"+ + @ + @ @ @ @ 5 w 5 + + @ + + @ @ + + + @ @ @ + < q.E.1.F.!.4 >.~.6.oX.XE.`.*XXXK.A + 5 @ @ @ @ @ @ @ @ @ @ @ @ @ @ @ @ @ @ @ ",
"7 7 7 7 7 5 + + 5 w 8 7 @ @ + + @ @ @ @ @ @ + + @ ]  X^.=.J.H.Y ).E.e.[.`.A.t.n.A.M.p.x @ 8 8 @ 8 8 @ 8 8 5 7 8 8 w w 8 7 @ @ @ ",
"w w w w e 7 + + 7 w w 8 @ + + + @ + @ @ @ @ + + p M.*X[.n.p.M.N.{.%X{.M.k.l.q.M.+XoX&X$.@ r w 7 r r 7 w r 5 7 w r r r r w 7 @ @ ",
"@ @ @ 5 w w w w w w 7 5 w w w w 7 + @ + + + @ U %.k.T._.$.$.XX^.s.L.#X].n.E.a.=..X:X&X1.0 r r r r r r 8 5 @ @ 5 5 8 r r r r 8 @ ",
"@ 5 7 7 7 7 7 7 7 7 @ @ 7 w w 7 5 + + > [ %.n x.'./.k.' # 9 >.'.G.@XXXY.V.E.s.{ X._.[.D.9 r r r r r r w 8 @ @ @ @ 7 w w w e 8 @ ",
"5 w w w + + + + + + + @ @ 7 w @ @ @ + ] Q.^.e.[ [.^.! . + 7 q M.G.XXOXQ.'.A.u.H m a._.D./ 8 r r r T r T r 5 @ @ @ @ @ @ 5 7 7 @ ",
"@ @ @ @ @ @ @ + + + + @ 8 w w 8 8 8 c =.0.s.A.r.O.2 X + @ @ @ 0.p.~.|.oX.Xn. .#.< ! 3.r.,.# 7 r r T r T r 5 7 w e 8 @ @ @ 5 5 @ ",
"+ 5 7 7 7 @ + @ @ @ + @ w e e e e w S Y K H 2 m # O @ + @ @ m 4 I I H.*XJ.9.$.p.m u ( 3.,.# 7 r r r r T r 7 7 w r e 8 7 5 @ @ @ ",
"7 r r r r 8 + @ @ @ + @ w e w w w w 0 $ . . + + + @ 7 5 + y / 4 I M 1.0.1./ F q./ + s P I > e r e e r r r 7 7 7 7 w r w 7 @ @ @ ",
"w r r r r e 7 + + @ + + 5 5 5 5 5 5 5 @ @ + @ + @ 7 @ 5 5 y ( V @.( ..3.@.G & U >.9 5 4 4 # 7 w 8 7 a v c 7 7 7 7 7 8 7 5 @ 7 8 ",
"r r r e r r e @ + @ @ + @ + @ @ + + + + @ @ @ + @ 7 @ @ @ , M M V F I / I 4 - 1 8.O.J ~.>.h @ 7 a ] z.M.e.X.a 7 5 @ @ @ @ @ 7 e ",
"e e e e e r r @ + + + + + + @ @ + + + + + + @ + @ @ + # o o 4 ) s V ) o , 3 1 : A ' 8.!.k.F : L D.Q.q.L 2 A s 7 5 @ @ @ @ @ 7 e ",
"7 7 7 7 w w 8 7 7 7 7 7 8 5 + + @ 7 + + + @ @ + @ 7 : , : - +.O., [ O., 1 4 4 3 : ; ' J.~.L F e.V.q.z + 5 5 + 7 5 @ @ 7 7 7 7 7 ",
"O O O + w 7 5 w e e e e r 8 + + 7 w @ + @ @ + @ ; > , 3 , o n F / w.G : 3 1 , , - # n 9.] h A } { z + 7 w @ @ @ @ @ 5 8 e e 7 5 ",
"+ + O + w w w w e e e e r r r r 8 @ @ + + + @ + , 3 4 , : o   & w.3.M , , : 1 4 4 : X . . < G < o + 8 r r r 8 @ @ 7 w w e e r r ",
"O O O + 7 7 7 7 7 7 7 8 r r r r e 7 7 5 @ + + o 4 n 4 3 - : o & 3.r.n - - 3 4 n 4 1 o + + + R < + 7 w r r w 7 @ + 5 8 w w 8 w e ",
"+ + + + + + + + + + O @ w r r r r r T e @ @ @ s A._.' : , o o o P ~ o o : 1 1.).m.n X + @ 7 l C ; w e r r + + @ @ + @ 8 w 5 @ @ ",
"8 w w w w 5 . O O O O + @ @ @ @ @ 7 w r w w w ! #X~.*.2 - o o o X   o o o K Q.{..XK . 7 8 w d R > e r r r @ @ + 7 8 w w w 7 7 7 ",
"e e r r T 8 + + O + + O O O + + + @ w e r r r b q.A.n.n o o - o o o o o o ' M.p.M.A @ 8 8 8 8 R u 8 r r r @ + 5 w w w w w 7 8 7 ",
"7 + 7 e r r r + O + + O O O + w w w w e e e e t  .Y.*Xe.o o - : : - - o o 4 e.Y.l.7.> @ @ @ + k C + w e w + 7 w 8 7 7 7 7 7 7 7 ",
"+ + @ 7 e r r + O O O + 7 7 7 7 7 7 7 7 7 w e e S M.$X}., o o o : - o o o o m.-XY.A.U O @ 7 7 a R > w e w @ 7 e w w e 8 7 7 7 5 ",
"O O O + 8 e e @ + + + + w w w 7 @ @ 5 5 5 8 w w c q.Q.Y.< o : o o o o o o o i.;X[.n./ O @ 8 w 8 W u 7 e w @ 7 e w e r 8 7 @ 5 5 ",
"+ + O O + + + O + w w 8 + 5 8 w 8 7 w w w 7 7 r c q.W.2.7 ; o o o o o o   7 v N..Xk.L @ w 7 7 w l C @ r r r r r 5 + @ + + @ 8 r ",
"O O + 5 5 5 5 7 8 r 8 5 + @ @ 7 5 @ 8 w w 7 7 r a ' 9.n 7 r 8 + X X   + 7 8 7 m p.k.K @ w 7 8 w d R @ r r r r r @ @ @ @ @ 8 8 w ",
"+ + 7 e e e e r r r @ O + + + O O + 7 7 7 w w 8 : , 1 + w r r r @ + + 7 r @ + $ B B 1 + 7 w e e w D > r r e r r 5 @ 7 @ 5 r 8 @ ",
"8 8 w e w r r r r e + + 7 8 7 + O + 7 7 7 7 8 a ' 1.B > r r r r r w + @ @ @ @ ; , n 1 + w w r r r y @ e r r r e 7 5 + @ 5 r 8 @ ",
"e e 8 8 e e w w w 7 5 5 w w 7 + + @ 5 5 5 7 c 7.[.&XC.9 r e w w w w + + + @ 5 5 U #XH.m w r r r e > @ e r r r e 7 5 @ @ 8 w 8 5 ",
"w w @ + r 8 + + + + 7 w w 5 + O + 7 + + L %.B.Q.i.9.<.> r 7 @ @ @ @ @ @ @ 7 7 7 L %XoX&.q r r r 7 @ @ r r r r r @ + @ e e + 5 7 ",
"@ @ + + @ @ O . + 8 5 @ @ + O O + @ + + p m M s o . . + @ + + + + @ 5 @ + @ 5 7 9 &.4.&.m w r r e e e e w w w 8 7 7 7 7 7 7 7 7 ",
"O O O + + + + @ 7 r 7 + O O + + O O O O . . . . . O O + @ + + + + 5 8 7 @ @ @ 8 8 7 @ + + e r w e r e 8 7 7 7 7 7 7 7 5 5 8 8 7 ",
"O O O + 7 7 7 r r T r w + . + + O O O O O O + + O O . @ w @ + + 7 e r r r @ 5 w w e r r w e 7 @ + + + @ @ 7 7 7 @ @ 7 w w w 8 7 ",
"8 8 + + + 7 7 w e e r e + O O O @ 7 7 7 7 + O O + 7 7 7 7 7 7 7 7 7 r r r 8 7 w e e r w 7 w w 8 7 @ + 5 7 w 7 5 7 7 5 w w 7 8 w ",
"r r 7 + + @ 7 7 7 8 r e + . + + 5 w w w e 5 + + 7 w e 8 @ w e e 7 7 w r r e w w w w w 7 5 w e r 8 7 + 7 w w 7 @ w 8 @ 8 w 5 7 w ",
"w r w 7 7 @ + e r r r e + O + 8 7 + + @ w w w w 7 5 w 8 @ w e e r r r r r 5 7 w 7 7 w w w 5 + @ + 5 w 7 @ + @ @ w w w w w w 7 5 ",
"7 r 7 5 5 5 7 r r e e 8 + O + 7 5 + @ 5 7 8 w e 8 7 8 7 7 8 w w e e r e 8 5 7 w 8 7 w 8 7 7 5 5 @ @ w 7 5 5 5 7 e r e r e w 7 7 ",
"@ w @ + + 7 r r e 7 7 7 + O + O + 7 w 7 + 5 8 w w w 5 7 w 8 7 7 7 7 7 5 @ 7 8 w w w 7 5 + w w w 5 5 w w w w w e r r w r r 7 w w ",
"@ 8 7 5 5 7 w w 7 @ @ + + O + O + @ + @ 5 + @ 8 8 8 8 8 8 7 8 w 5 @ @ @ @ 7 7 5 5 7 w 8 7 5 5 5 7 7 8 w w 8 8 8 e e 8 w w w 7 7 "
};
