/* XPM */
static char *_f13e941505941f0834e7e0844db5368[] = {
/* columns rows colors chars-per-pixel */
"64 64 223 2 ",
"   c #000001",
".  c #0F0107",
"X  c #03030D",
"o  c #0E0309",
"O  c #030A0D",
"+  c #0C090E",
"@  c #100107",
"#  c #1B0107",
"$  c #140309",
"%  c #1B030C",
"&  c #14090F",
"*  c #040311",
"=  c #060D13",
"-  c #0C0D13",
";  c #060C19",
":  c #130B12",
">  c #1C0C12",
",  c #1A0E19",
"<  c #071116",
"1  c #091116",
"2  c #0B151A",
"3  c #0A191E",
"4  c #06131C",
"5  c #111016",
"6  c #1F1311",
"7  c #15131B",
"8  c #151C1E",
"9  c #1A131C",
"0  c #230204",
"q  c #21030F",
"w  c #2A0A09",
"e  c #330201",
"r  c #320D00",
"t  c #370C08",
"y  c #351200",
"u  c #3B120A",
"i  c #250311",
"p  c #2B0313",
"a  c #220C1A",
"s  c #2B091A",
"d  c #2A0912",
"f  c #320316",
"g  c #310315",
"h  c #350317",
"j  c #340317",
"k  c #360217",
"l  c #310517",
"z  c #330216",
"x  c #360318",
"c  c #350318",
"v  c #360519",
"b  c #350418",
"n  c #3A051A",
"m  c #3D061D",
"M  c #3E061D",
"N  c #3B051B",
"B  c #370919",
"V  c #211915",
"C  c #231B19",
"Z  c #071D26",
"A  c #0B1D23",
"S  c #081C27",
"D  c #121C22",
"F  c #1C1D23",
"G  c #1C1A25",
"H  c #2C0F21",
"J  c #271E27",
"K  c #331B2B",
"L  c #09252B",
"P  c #09242A",
"I  c #13252B",
"U  c #1D252B",
"Y  c #0A2C30",
"T  c #0C2330",
"R  c #122830",
"E  c #1B2B32",
"W  c #0A3B3E",
"Q  c #0A3539",
"!  c #1A3239",
"~  c #24232C",
"^  c #212425",
"/  c #292E35",
"(  c #263439",
")  c #2F2E34",
"_  c #4C0202",
"`  c #470101",
"'  c #540101",
"]  c #5B0301",
"[  c #520A00",
"{  c #48160C",
"}  c #561C00",
"|  c #541B08",
" . c #450D15",
".. c #4F1219",
"X. c #5B1616",
"o. c #570E1F",
"O. c #640202",
"+. c #6B0303",
"@. c #750202",
"#. c #7C0303",
"$. c #7B090C",
"%. c #77161E",
"&. c #65161F",
"*. c #572100",
"=. c #68240A",
"-. c #762A0A",
";. c #782512",
":. c #771B24",
">. c #691720",
",. c #24443F",
"<. c #0C3E41",
"1. c #143B47",
"2. c #293A43",
"3. c #3B3A49",
"4. c #44394B",
"5. c #0B4143",
"6. c #16434E",
"7. c #29424C",
"8. c #2F4A54",
"9. c #334E59",
"0. c #374953",
"q. c #39515C",
"w. c #334146",
"e. c #3B5A65",
"r. c #237179",
"t. c #40555C",
"y. c #405E69",
"u. c #425864",
"i. c #46616D",
"p. c #4A6977",
"a. c #536C7A",
"s. c #840201",
"d. c #8D0204",
"f. c #890E00",
"g. c #860B08",
"h. c #940202",
"j. c #9B0404",
"k. c #950C00",
"l. c #891502",
"z. c #9A1A00",
"x. c #961600",
"c. c #95151C",
"v. c #8D171F",
"b. c #A90102",
"n. c #A40404",
"m. c #B50000",
"M. c #BB0000",
"N. c #A3161E",
"B. c #BA1800",
"V. c #8D2C02",
"C. c #902F00",
"Z. c #9E2A02",
"A. c #913201",
"S. c #9F330E",
"D. c #9E3D0A",
"F. c #993606",
"G. c #90370F",
"H. c #AD2B01",
"J. c #A32902",
"K. c #B82901",
"L. c #AB3F0B",
"P. c #A53C09",
"I. c #B53D01",
"U. c #BC3400",
"Y. c #831C25",
"T. c #8D212C",
"R. c #90222D",
"E. c #C90000",
"W. c #C50001",
"Q. c #D30100",
"!. c #D40C00",
"~. c #C81900",
"^. c #D31500",
"/. c #CB3C00",
"(. c #C43C00",
"). c #D63400",
"_. c #D43B00",
"`. c #CA2600",
"'. c #9F460B",
"]. c #9D4D13",
"[. c #AD410B",
"{. c #B5440D",
"}. c #B64F08",
"|. c #BA460A",
" X c #B65B0C",
".X c #B65109",
"XX c #9F6213",
"oX c #B66E10",
"OX c #B67011",
"+X c #AF5E34",
"@X c #C54402",
"#X c #C74706",
"$X c #D34500",
"%X c #DA4500",
"&X c #D44A01",
"*X c #DC4B00",
"=X c #D55000",
"-X c #DE5400",
";X c #C4531C",
":X c #C55417",
">X c #D35416",
",X c #E14D00",
"<X c #E05200",
"1X c #D3670F",
"2X c #C56211",
"3X c #C57616",
"4X c #D37613",
"5X c #C55620",
"6X c #C59A1F",
"7X c #C5941E",
"8X c #D3941A",
"9X c #287E87",
"0X c #5C7984",
"qX c #557987",
"wX c #4D7280",
"eX c #617F89",
"rX c #5D8999",
"tX c #5A8494",
"yX c #628592",
"uX c #61808B",
"iX c #7599A7",
"pX c #759AA8",
"aX c #7BA1B0",
/* pixels */
"% % % % % % % % % % % % % % % % % % % % % % % % % % % % % % % % % % % % % % % % % % % % % % % % % % % % % % % % % % % % % % % % ",
"% % % % % % p p p q % % % % % % % % % % % % % % i p p p p p i % % % % % % % % % % p p % % % % % q p q % % % % % % % % % % % % % ",
"% % % q i i b N f i q q q q % % % % % % % % % % p M M M M M p % % % q q q q q q q N b q % % % % q f p q q q % % % % % % % q i i ",
"% % % b N N p q q p c N N b % % % % % % % % % % i i i i i i q % % i f f f f N N N M M N i % % % % q p h f f f % % % % % q f b N ",
"% q p f N N p q i p f M  .N % % % % % % % % % % i p % % % % % % % i p h c c f b N N M M f p p p p % i p p f h p i % i p p h N N ",
"% i f p p f p p i q i M M b q % % % % % % q q q f N i q q % % % % % % p h h i i h h b M M M M M b q % % % p h h p q f c c h h h ",
"f p q p i q q % % i p p p f N i % % % i f b N f N M h b b q % % % % % q p h p p p p f M f p i i i % % % % q q q i p h c h i q q ",
"p p i p i % % q i p p i i p f i q p p p p p f p p f p b M p p p q % % % i p i i i i p f p i q % % % % % % % % % q i p f h i i i ",
"% q p p i % % i h p i q % % % % q f h f % % % % % % % p M M M N i % % % % % % % % % % % i p p q % % % % % % % % % % i p h p p h ",
"% % q q % % p f h i i f f p % % % q i q % % % % i f f p i i i i % % % % % % % i f i % % % q q % % % % % % % % % % % q i p p p p ",
"% % % % % % p f h i i h f p % % % % % % % % % i p f f p i % % % % % % i q % i p h p i i % % % % % % % % % % % % % % % q i i i i ",
"% % % % % % % i f i i h i % % % % % % % % % % f p p p f N % % % % % % f p % p h h h h h q % % % % % % % % % % $ % % % % % % % % ",
"% % % % % % % % % % % p p p p f p % i f b b b q i p % % q % q p i i i f f p h p q p c h f p % % % % $ $ $ $ % $ % % % % % % % % ",
"% % % % % % % $ $ % % i i p h h p % p N N b p % % i % % % % q p i i i p f f p i % p c c c f q q q q q q q % $ % % % $ $ $ $ $ $ ",
"% % % % % $ % $ % % % % % % h p p p b N p % % % $ % i p i % % % % % % i p p % % % p h h h h f f h h h f h i $ % % % % % $ $ $ % ",
"p i % % $ $ % $ % % % % $ % % % % % q q % % $ $ $ % % % % % $ $ $ $ % % q p % % i q q q % % % % q q % i h i $ % % % % % $ $ % % ",
"p i $ $ $ $ $ $ $ $ % q q i i % % % q i i % $ $ $ $ $ $ $ $ % % % % $ % % i % % i % $ $ $ $ $ $ % $ $ % p q $ % % % $ $ % % % % ",
"% % $ $ % % % % % $ q h N M M i % f N M M p $ % % % % $ $ $ $ % % $ $ % % % % % % $ $ % % % $ $ % % $ % $ % $ % % % % $ $ % % % ",
"% $ % $ % p f b f p f N p p N f p h x N M N f b b f % & - 1 : $ $ & 1 - : % $ $ $ $ % % % % % % % % $ $ $ $ % % % % $ $ $ $ $ $ ",
"$ % % $ q p N M M N N M p i h f p p p f N M M M N b & - 1 2 : % q > 7 2 - & % % % $ % % % % % % % % $ % $ $ % $ % % % % % q q q ",
"% % % $ % % p N M M M c p p h q % % % % f N M M p & - 2 2 & i c N M m 7 2 1 s f % % $ $ $ $ % % % % % % % % % % $ % f h c M M M ",
"$ $ $ $ % p N N N f f p i % q % % p > 5 , a i i > - 2 , s p f h x x N s , 2 7 a f % & 5 5 : % % % % % $ $ $ % p p p i i i p f N ",
"% % q % p x b b f p p i % $ $ $ % p , 2 2 : $ $ - 1 2 a h c B H H s p f a 2 < , M p > 7 2 2 $ % $ $ $ % % % q h c f i % % % p h ",
"f b M M M M i % p f p % $ $ $ $ % % : 2 & $ % % - 1 2 a h h J <.<.I % % : 2 1 : c N N m 9 2 $ $ $ $ $ % f h h h c h h p % % p c ",
"N N f N f i % % % q q % $ % % $ & - 2 2 & % % % - 1 2 7 9 U ! 5.5.Q I 7 1 2 1 : i i i i 7 2 - a p % $ % q i i q i i i p p p f c ",
"N b p h p % % $ $ $ $ $ % % % % & 1 2 2 & & $ & - 1 2 3 P W W Q Q W <.L A 2 1 - & % % & 2 2 1 a f % $ $ $ % % % % $ $ i f f f f ",
"p p p N b p % $ $ $ % % % % % % & 1 2 2 2 : & - 1 1 1 L <.5.L * * Z 5.<.Y 1 1 1 1 p s 2 2 2 1 : % % $ $ $ i h f i $ $ % % % % % ",
"% % q i i % % t =.w $ $ % % $ & - 1 1 2 2 1 - 1 Z Y Y L Z Z 4 X X ; Z Z P Y Y L 1 : , 2 2 1 1 - : % % % i p m ;.{ $ % $ $ $ $ $ ",
"$ $ $ % % % % { {.| w w % $ $ - < < < 1 2 3 3 3 L W W Z X X ; S S ; * X 4 Q W Y 3 3 3 2 1 < < < - % % q  . .X.[.=.$ $ $ % $ % % ",
"% $ % p b N f X.{.[.P.P.{ $ % - < 1 < 1 2 Y W W P ; ; * * X 1.9Xr.6.* * * ; * Z W W Q 3 1 < 1 < - $ % t D.L.L.|.=.$ % $ % $ i f ",
"$ % p b M M c  .=.D.|.#XF.=.: - < < Z L Y L Z P 4 * * * * X S 6.1.T * * * * * ; Z Z P Y L P < < < - | C.#X#X[.=.u $ % % % $ % i ",
"% p M M M M x g w G.#X$X*XI.V V V V / ,.,.^ > > > > 6 6 6 6 6 6 6 6 6 6 6 6 6 > > > C ,.,.( C V V V F.,X$X#XP.t % $ % % % % $ $ ",
"N M M N c c c X.P.{.L.A.@X*X@X@X#X;X;X5X5X;X;X2X2X2X3X3X3X7X6X6X6X6X6X3X3X3X2X2X2X:X;X5X5X;X;X#X@X@X&X$XA.P.{.L.| $ % % $ $ $ % ",
"p f N c h h c  .=.P.{.F.I.I.I.I.I.{.{.{.{.{.{.}.}..X X X XoXOXOXOXOXoX X X X.X}.}.{.{.{.{.{.{.I.I.I.I.I.F.L.[.-.u $ $ $ % i q $ ",
"% i h h h h h p % -.[.{.F.C.C.C.C.C.C.C.C.C.C.A.A.A.A.A.A.A.A.A.A.A.A.A.A.A.A.A.A.C.C.C.C.C.C.C.C.C.C.A.{.[.G.q $ $ % & % f p % ",
"p f h i p h q % $ 0 | {.#X$X$X$X$X$X$X$X$X$X&X>X>X>X1X1X1X4X8X8X8X8X4X1X1X1X>X>X>X&X$X$X$X$X$X$X$X$X$X$X|.=.0 $ $ $ p f f h h f ",
"h f p q i h p q q $ w =.Z.H.H.H.H.H.K.K.J.Z.Z.S.S.S.D.D.D.'.].XXXXXX'.'.D.D.S.S.S.Z.Z.J.K.K.H.H.H.H.H.J.-.u . @ % i f c c c p i ",
"f p % % i h h h h % $ @ _ O.O.+.+.+.s.s.' ' ' ' ' ' ' ' ' ] ] ] ] ] ] ' ' ' ' ' ' ' ' ' #.s.+.+.+.O.O.' $ $ $ $ i c f f f f i @ ",
"% q f f p q q p c f i $ # 0 0 ' +.+.@.#.d.d.h.b.m.M.M.B.U.(.@X@X@X@X(.U.K.M.M.m.b.h.d.d.#.@.+.+.] 0 0 # @ q f f f f % $ $ $ $ @ ",
"$ % c c f i i i i p q $ $ . $ e _ _ O.@.j.j.n.M.W.E.E.~._.*X,X<X-X<X*X$X`.E.E.E.M.n.j.j.#.+.O.' e @ . $ @ % p i i i $ @ @ @ @ $ ",
"$ % f f f h h p $ @ . . $ . $ $ % 0 ' @.h.j.j.m.M.M.M.~./.$X*X*X*X*X$X/.`.M.M.M.M.n.j.j.#.O.' w $ $ @ $ $ @ @ @ . . . @ $ $ $ $ ",
"$ $ $ $ % % % $ $ @ . $ $ . . ..:.:.g.s.O.] O.s.s.s.s.s.f.f.f.f.f.f.f.f.s.s.s.s.s.+.] ] #.g.Y.:.X.$ @ @ @ @ @ @ @ . @ @ $ $ $ $ ",
"$ @ @ @ @ @ $ $ $ . $ $ @ % B :.T.T.v.g.' ' ] @.#.s.h.k.x.z.z.z.z.z.z.x.k.h.s.#.@.O.' _ $.c.Y.T.:. .p % % % % $ . $ $ $ $ $ @ @ ",
"$ $ $ @ $ $ i q $ $ . $ . d Y.T.T.T.T.Y.' O.@.@.s.j.W.~./.$X&X=X=X&X$X/.`.W.n.d.@.@.+._ %.T.T.T.T.T.o.f h h p $ $ . $ $ $ . $ $ ",
"$ $ $ @ $ i p p i $ @ @ . d T.T.T.T.T.:.# ' h.h.] 0 e e y y y y y y y r r e 0 ` h.h.+.# >.R.T.T.T.T. .$ % % % p % @ $ @ @ . % p ",
"$ $ $ @ % p p p p : - $ . q &.v.N.N.%...  e O.+.e     O + O O O O O O O O     0 +.O.`    .%.c.N.c.>.d . @ + : p % . @ $ % % p c ",
"$ $ $ . % p $ % p F D $ $ $ $ d.Q.Q.'                 1 R R R R R R R R 3                 e E.Q.b.# $ $ $ 8 I & @ $ $ q h h h h ",
". . . . $ $ $ % b u.e.D & @ @ d.Q.Q.'           = 3 2 8.yXyXyXyXyXyXyXyXy.3 3 <           e E.Q.b.# . & 2 8.y.: @ $ p i % % % % ",
"$ $ % % $ @ @ % p p.qX7.D o $ d.Q.^.[         X E 8.8.i.0X0X0X0X0X0X0X0Xp.8.8.( O         e ~.Q.b.# . 5 2.p.qX, . $ p % @ @ @ @ ",
"p p p f p $ $ $ & i.rXtX2.- $ d.!._.}       X 3 i.aXaXt.  X X X X X     ( pXaX0XP O       r /.^.b.# - I qXrXwX, @ $ $ $ @ $ $ $ ",
"$ $ % p p q p p p J 0.rXwX9.- l.).%X}     X D a.u.( ( 8                 1 ( ( 0.0XE O     y $X).J.& 7.p.rXu.~ & @ @ @ @ @ @ . @ ",
"@ $ $ i p p f f h % F p.p.y.! G.%X*X}     O I 0X2.                            U 0X( O     y &X%XL./ q.p.p./ . $ $ @ @ $ % % % % ",
"@ % p p p h p p f % $ & & ~ qX+X*X-X*.    O < O                                 O = =     y =X*X;XuX2.@ & @ @ $ $ $ @ q c M M M ",
"$ $ % % % % % % % $ . . @ : / ].<X-X*.      X                                     X X     y =X<X|.) 9 . @ @ $ @ % p p i % q q q ",
"$ $ @ @ @ @ @ @ $ @ $ % $ & F D.<X-X*.                                                    y =X<X|.J : @ $ $ $ @ i c c i . @ $ $ ",
"p % @ @ @ @ @ @ $ $ % f % J qX+X,X-X*.                                                    y =X,X;XeX( . @ $ @ @ i c c i @ @ q h ",
"p i % $ $ i q q i i p p 3.q.7.].%X*X}                                                     y &X%X{.w.9.0.& . $ i i i i i i i p c ",
"i p p % % c p p h f s K u.e.2 V.).%X}               8 F F D 8 8 8 8 8 8 8 8 O             y $X_.J.5 9.p.~ , % f p % % i p h h f ",
"$ q h p p h p p p % ~ qX2.2 1 g.^._.}     O =     1 yXpXiXiXiXiXiXiXiXiXpXiXU     O O     r /.^.n.5 2 E qX4.f h p p p % $ f f p ",
"$ $ q p p q p p % @ 9 9.F + + d.Q.^.[     O < O O 1 q.y.y.y.y.y.y.y.y.y.y.e.D O O < =     e ~.!.b.& : G 9.) h p f f % % q p p p ",
"@ @ $ p i $ p i $ @ : A - @ @ d.Q.Q.'     O = = = < 2 A Z Z Z Z Z Z Z Z A 2 < = = = O     e E.Q.b.# % i D a f p b b % % p i i i ",
"$ @ $ $ $ $ $ $ $ @ . @ . . @ d.Q.Q.'                                                     e E.Q.b.# $ $ @ $ $ p p p p p p $ $ $ ",
"$ $ @ @ . . . . $ $ @ @ @ $ @ d.Q.Q.'                                                     e E.Q.b.# @ @ @ @ $ % % % % % % $ @ @ ",
"$ $ $ $ $ $ $ $ $ $ $ $ $ . @ d.Q.Q.'                                                     e E.Q.b.# $ $ $ $ . . @ @ @ @ @ @ $ $ "
};
