/* XPM */
static char *_06841f22d45489e8b1a61e29a683a22[] = {
/* columns rows colors chars-per-pixel */
"64 64 210 2 ",
"   c #1D020D",
".  c #1E030E",
"X  c #1D030D",
"o  c #2D0214",
"O  c #380319",
"+  c #3E061D",
"@  c #3F071E",
"#  c #3C061C",
"$  c #230310",
"%  c #2C0414",
"&  c #290413",
"*  c #1F030E",
"=  c #240210",
"-  c #290312",
";  c #2B0414",
":  c #2A0414",
">  c #1D030E",
",  c #260211",
"<  c #2C0314",
"1  c #300516",
"2  c #37061A",
"3  c #220310",
"4  c #22030F",
"5  c #3F061E",
"6  c #3A061B",
"7  c #21030F",
"8  c #370318",
"9  c #3D061C",
"0  c #3B061C",
"q  c #1E020E",
"w  c #2E0415",
"e  c #240310",
"r  c #280413",
"t  c #3C051C",
"y  c #20030F",
"u  c #360519",
"i  c #21020F",
"p  c #240311",
"a  c #330518",
"s  c #310316",
"d  c #310215",
"f  c #340317",
"g  c #370319",
"h  c #320316",
"j  c #330317",
"k  c #38051A",
"l  c #38061A",
"z  c #3B051B",
"x  c #380419",
"c  c #270311",
"v  c #310417",
"b  c #250311",
"n  c #3D061D",
"m  c #320517",
"M  c #260311",
"N  c #22020F",
"B  c #270412",
"V  c #260412",
"C  c #280312",
"Z  c #2F0315",
"A  c #2F0215",
"S  c #2E0214",
"D  c #2E0315",
"F  c #350519",
"G  c #360318",
"H  c #39041A",
"J  c #3E071D",
"K  c #2D0415",
"L  c #310517",
"P  c #2A0213",
"I  c #2B0314",
"U  c #340518",
"Y  c #2C0214",
"T  c #3A051B",
"R  c #2D0314",
"E  c #37051A",
"W  c #1F020E",
"Q  c #36051A",
"!  c #39061B",
"~  c #20030E",
"^  c #290212",
"/  c #20020E",
"(  c #310216",
")  c #39051A",
"_  c #340217",
"`  c #330316",
"'  c #2B0313",
"]  c #3A061C",
"[  c #350318",
"{  c #300315",
"}  c #2C0415",
"|  c #250211",
" . c #350418",
".. c #2A0212",
"X. c #2A0313",
"o. c #280212",
"O. c #3A041A",
"+. c #2F0516",
"@. c #2E0515",
"#. c #270211",
"$. c #320216",
"%. c #270312",
"&. c #300215",
"*. c #280412",
"=. c #350317",
"-. c #290313",
";. c #20020F",
":. c #320518",
">. c #360419",
",. c #2C0213",
"<. c #250210",
"1. c #350217",
"2. c #330417",
"3. c #230210",
"4. c #340418",
"5. c #3F061D",
"6. c #19030B",
"7. c #2E0314",
"8. c #320417",
"9. c #310416",
"0. c #360619",
"q. c #260312",
"w. c #2F0314",
"e. c #1C030D",
"r. c #370419",
"t. c #260411",
"y. c #2F0416",
"u. c #18030B",
"i. c #1A030C",
"p. c #2E0516",
"a. c #1C030C",
"s. c #17030A",
"d. c #1A020C",
"f. c #17020A",
"g. c #18020B",
"h. c #310315",
"j. c #360218",
"k. c #1B030C",
"l. c #300517",
"z. c #1C020D",
"x. c #3A041B",
"c. c #330217",
"v. c #240411",
"b. c #2A0413",
"n. c #2C0514",
"m. c #360418",
"M. c #2E0416",
"N. c #19020B",
"B. c #1E020D",
"V. c #36061A",
"C. c #2C0313",
"Z. c #1B020C",
"A. c #2B0213",
"S. c #1E030D",
"D. c #220410",
"F. c #1C020C",
"G. c #17030B",
"H. c #240410",
"J. c #2D0515",
"K. c #350518",
"L. c #2A0312",
"P. c #1A030B",
"I. c #23030F",
"U. c #38041A",
"Y. c #220210",
"T. c #18020A",
"R. c #21040F",
"E. c #230410",
"W. c #250310",
"Q. c #300416",
"!. c #1A020B",
"~. c #320317",
"^. c #2B0514",
"/. c #21020E",
"(. c #100107",
"). c #16020A",
"_. c #350619",
"`. c #110208",
"'. c #330216",
"]. c #38061B",
"[. c #2D0315",
"{. c #140209",
"}. c #250411",
"|. c #21030E",
" X c #120208",
".X c #3A051A",
"XX c #3C051B",
"oX c #0F0107",
"OX c #100207",
"+X c #130208",
"@X c #3B051C",
"#X c #22040F",
"$X c #40071E",
"%X c #110108",
"&X c #39051B",
"*X c #370519",
"=X c #19020C",
"-X c #150209",
";X c #270212",
":X c #2C0515",
">X c #120108",
",X c #15020A",
"<X c #2D0414",
"1X c #23020F",
"2X c #300316",
"3X c #280211",
"4X c #130209",
"5X c #17020B",
"6X c #330418",
"7X c white",
/* pixels */
"          . . . . . . . . . . . . . . . . . . . . . . . . . . . . . . . . . . X X           . . . X . o O + @ # $       . . . . ",
"% % % & *       . . .       . . . . . . . . . . . . . . . . . . . . . . . . X . = - ; % : *   . . > . , < 1 2 # $ 3 ; 4         ",
"5 + 5 6 7 . * .   .   . * .   . . . . . . . . . . . . . . . . . . . . . . . X . o 8 9 + 0 3   . . . . . q q w # e & + r * * * * ",
"9 O t 6 y & u 3   X   $ u &     . . . . . X       . . . . . . .       . . . > . i $ p a # 3   . . X . - s d f g h j O k l l 2 2 ",
"z x t 0 c v + % e .   b n m M *   . X X q N b B 3   . . . . .   $ V *   . . . > X     : a 7   . . > . C Z Z A S A A D a F F 0 @ ",
"x + @ n G H J J a .   b n + 6 3   . . . . o 8 n K   . . . . >   L 6 7   > . . . . . X . . . X . . . . . . . . . . . . . . . L @ ",
"9 + @ n 8 Z : 0 0 a a L & & : a : q P Z a I M & $   X X X X .   D H U &     . . . . . X       . . . . X X X X X X X X   i Y f H ",
"0 9 # T O R $ k 9 0 n E 7 W 3 Q w q o f ! B   W W ~ ~ ~ ~ . X X ^ j 9 m $ *   . . . X / 4 $ 7   . . . . . . X . 7 4 4 i c 8 f ( ",
"D G Z D # ) _ G ` ' j f - ^ C 7 * . W * y . W C - - - - C y X X q 3 f H ] $           ^ [ # 1     . . . . . X * { f f _ G + } W ",
"| ^ ^ < H  .A P ^ ..S S X.X.^ = i X X       ~ - X.X.X.X.- b 4 . X W o.s O.L +.+.+.+.+.< ' x u @.4   X X X X   q #.^ ^ ^ X.K p   ",
". X e P $.S %.* 7 - - C C C C - e X X . * . y - - C C C C - M . X X X o.G z n + 5 @ @ K W &.x n *.* . * ~ / y y y y y .       . ",
"b . * ~ 7 y * . 4 - $ * * * * * . X X y %.C C X.e * * * * * W         o.=.M -.8 t @ @ K   ;.X.g T :.. P ` $.>.6 ! 6 ! V   . . . ",
"$ . X X X X X X y b ~ X X 3 c c $ X X 7 - c b b 7 X X       y & : : : I ,./ <.1.2.m :.B   X 3.R v K . #.R o 4.t 5.0 m e   . . . ",
"X X . . . . . . X . . . X ' =.=.' X X 7 - 4 X . . . q . . . V n + + @ 1   X b f b X . . .   . . . . . .   X ^ G 9 a . X . . . . ",
"6.6.c { { { D 7 X . X.< . 7 e e 7 . . . 7 . 7 7.{ Z A 8.u u l @ F 9.+ 1   X * $ * X X       B 0.u u u V     ;.e q.$ . X . . . . ",
"* * C Z 7.w.R * e.e.- ' . X X e.e.e.e.e.X X 7 Z { { 1.r.6 6 ! 2 w ' F ;   X * $ $ $ 3.b t.b y.9 9 n @ w $ M 4       > . . . . . ",
"=.=.$ u.6.6.6.u.u.u.u.i.X . X u.u.u.u.6.X . . . . y $.h X.X.C * b C y . X X b f =.=.1.) n + T G G x + x G n p.  . . . . . . . . ",
"$ $ a.s.s.s.s.s.s.s.s.u.i.i.d.f.f.f.f.g.i.e.. X   q | | N N i   ^ h.o Y < < Z G G G j.O x K -.%.>.t + # k } p             X . . ",
"s.s.s.u.u.u.u.u.u.u.u.s.s.f.u.e.X X X k.u.k.X   y 3 . q 7 7 7 7 ' ` ` ` ` ` h h h ` 1.G f $ 7 $ U # + @ 6 $ ;.7 3 3 3 3 7 . X . ",
"u.u.u.u.u.u.u.u.u.s.f.f.f.f.k.0.0 0 0 l.u.f.g.z.K 6 3 | ` ` j f C ~ y y y y y y ~ e _ x.9 f >.] B r + @ n f c.f 6 # # # F .   . ",
"u.u.u.u.u.u.s.s.s.u.v.b.b.& n.# ! l.# ! : & : } p.y.X.o G G ` ' $ X X X X X X X X 7 A m.x.G O T R X.+.+.M.' P ' y.1 1 ] 0 w p   ",
"u.u.u.u.u.s.u.6.N.i.m n + + + 5.1 . F + @ @ @ @ +.y h._ f f Z ~ . X X . * . . * . y - A 1.1.1.1.j.A q B.q W .       . F @ 5.;   ",
"u.u.u.s.s.s.6.' { { e e G O O O < X 3 ; 5 @ @ @ # V.4   X X 4 h.M X X M s - X.s X.%.- ' C.< < < f Z . $ - { C X X   . F + O -   ",
"f.f.s.6.~ 7 4 X.< C.  Z.A.,.o _ A b <.- m m m m :.1 a.f.s.s.e.' 4 e.X b 7.%.C 7.' X.X.- - M b M Z R 4 e C s C . 7 i 4 v u D = X ",
"u.u.s.a.h =.` S.u.u.u.u.u.u.k.s =.=.=.R 6.u.u.u.u.u.u.s.u.s.u.u.u.u.X . . . . . M X.- X.C * . . c X.- 4 * - e . %.- - X.c . . X ",
"a a D.F.j C.7 ' b s.s.u.s.s.6.~ 7 7 7 S.g.f.f.f.f.f.s.u.u.u.G.s.s.f.N.N.i.X . . y 7 7 M - M M M 3 7 7 * . 7 * . 7 7 7 i ;.. X . ",
"2 2 H.d.7.e u.C.X.S.6.s.u.u.s.s.s.s.s.s.s.u.u.u.u.u.u.u.u.u.u.s.Z.S.* e.g.k.e.e.X X X $ %.%.%.c ~ X X X X X X X X X X X X X . . ",
"6.6.u.f.6.u.u.u.4 ` ~ s.s.u.u.u.u.u.u.u.u.u.u.u.u.u.u.u.s.s.f.f.o.[ # n.f.f.f.g.Z.    q q q q .     X       X           X X . . ",
"o.o.o.C C ~ s.s.7 =.R e u.s.s.s.s.u.u.u.u.u.u.u.u.s.s.s.u.3.X.J.K.z 5 J.u.& J.J.+.1 1 M * K r . ; ; . & K * = ' y.1 1 < o.q   . ",
"` ` ` j G - i.i.e =.f 7.a.k.k.k.6.s.u.u.u.u.u.u.s.u.i.k.k.Y G + + @ @ +.X l 5 + 5 @ @ +.e 0 a 3 l l 3 m 2 y o.f T n 5 O.h 3 *   ",
"k.k.k.* f f h h j G $ ~ h.h h h c s.u.u.u.u.s.s.s.6.7.h h | b G z @ @ n 6 J t 8 t @ @ # 0 J n 6 n n 6 ; y . W 7 7 } @ + n 0 b.  ",
"k.$ e e - - L.L.- - e.k.C h.=.' 4 s.s.s.s.s.P.I.e e - L.- C A.1.H ) 1 U z z H G H z z z z z # @ @ @ @ :.r *       p L L :.u *.  ",
"~ j =.{ i.s.s.s.s.s.s.u.u.- ` e.u.6.6.6.6.u.S.j =.h a.s.u.< =.=.1.( Z.<.j.1.1.G 1.1.1._ _ _ U.+ + @ @ @ 6 y q * * .     / o.Y.X ",
"N.B.B.  T.f.u.G.G.G.s.e.R h =.Z 7.7.7.w.Z Z { G X.S.u.s.u.e.4 < R C.M R G G G G G h e $ $ Y.' x 9 @ @ @ ! y , s u p.    . y * X ",
"i.R.D.D.D.X f.u.u.u.s.S.f G G G G G G f 7.7.7.7.4 s.a.k.s.s.i.e e e e < =.` s Z Z ' . 7 e 3.< x z 9 + @ 6 $ ^ j k a B $ ;.> X X ",
"E.# + n + n.f.u.u.u.s.S.f G =.=.=.=.G R 6.u.u.u.u.6.M $ u.u.u.u.u.u.u.W.=.< M . . . X X.=.1.H + O x + @ 0 ' ^ X.X.9.n y., . X . ",
"Q.+ z O.+ F ^ Z.s.u.s.i.4 4 4 4 4 4 I.* u.s.s.s.X $ * ~ $ $ $ $ a.6.7 C 7.X.C b P o Y  .z 8 f v Z < V r b.-.^ - 3.p & p i . M R ",
"O 9 x G # z [ X f.u.u.s.s.s.s.s.s.s.s.s.s.u.u.s.* M 6.X c c c c * X X.- c X.C.C.f O g k l h Y , #.N f.d.q P C.X.~       X X C.G ",
"G 8 G G G x.# . f.s.s.f.f.f.u.u.s.s.s.u.u.u.u.s.u.g.f.f.g.g.N.N.4 X.f C i.Z 1.=.z + 5.; i.i.!.6.6.6.u.s.e.h =.j 4 X X X X X ' G ",
"3.3.3., _ ~.K C , M , %.; y f.f.B.M k.s.u.u.u.s.W c b.^.; ^.V u., s G C 6.{ _ { T 0 J.y f.f.s.s.s.s.s./.#., o.- ~ X . M X.- ^ ^ ",
"(.(.(.).$.A.;.$.G G j.O 5 ; i.i.W.$.S.s.u.u.u.s., =.9 + n @ 0.6.^ G f c 6.7.&.C u _.6.f.u.u.u.u.s.u.P.< ` X k.  X . ~ Z G j.- * ",
"`.`.(.).'.f h =.G G j.O + 0 l ].% F.g.f.s.u.s.s.!.* j f [.6 0.u.^ '.W P.f.Z.F.k.X X u.f.s.s.s.s.s.S.{ k # ! & g.e.W.h f G j.U.6 ",
"(.(.(.{., ^ ^ o.o.o.o.< T n @ @ U }.}.R.u.f.N.i   N.#.,.7. .m I.{ m.y W 4 }.7 G.f.f.f.s.6.|.4 4 N #.1.z n a t.N.k.4 R j f o Q.a ",
"`. X X X X`.`.`.`.`.(.g.'..X+ n n n 5 a 6.u.X f c u.u.$ =.< C.1.T 0 ' S [ # m u.f.u.u.u.k.s G =.G G G XX! k.d.X 6.i.* Z h.* . . ",
"R m m m m 3 oX(.OXOX(.+Xd.z.. > * E.2.r.U a F @Xk U U v Y i ~ o %.#XX B.~ 3 * u.s.a.C.R 7.=.j.G z t t + ! k.g.i.- 7.Z f h c M M ",
"G F 6 + $Xp.i. X(.`.`.(.(.(.%Xf.Z.W &.O 9 9 n @ 6 2 + &XD X d.W.  f.f.s.f.f.f.s.s.a.7.Z Z Z A Z U l # 9 *Xk.d.~ Z j j ` s X.X.X.",
"A.{.o.O + + ! N.(.`.`.OX(.(.{.A _ f 1.G G G g + ^.a.].@ n #Xf.g.g.f.f.f.f.f.u.u.s.u.6.6.6.6.6.6.6.7 =.G s i.W.f C.P P P X.X.X.X.",
"Z.`.!.= r.t # =X(.(.(.-X<., , ;X%.C %.;X;Xd 8 H U +.r.z + a @.+.7 i.:X+.J.e.f.s.u.s.s.s.6.c - - ^ Y 1.j.d N., j.( ~.u [.o.$ Y.N ",
"(.OX(.-Xo  .0.g.>X,X-XZ.&.c.h $ * * ~ y y Y j G T n 8 H 5.@ + 0 }.a.V.0 ].E.k.u.s.u.s.6.S.{ f G f f =.G j . - 8 `  .! <X<.q y 4 ",
"`.`.(.OX{.-X,XOXZ.d $.,.).i R ` Z - h.j ` , b 0 T G G H @ @ 0.X 6.u.k.a.X _.1 u.f.u.s.M s 4 C =.b b =.z n ] # 0 7 k.e.i.d.  p.# ",
"(.(.d.i /./ i e % H < /.`.g.W <.1XW Y h.{ A.' ) x _ Y 2Xz + ! & . f.f.* & J.B u.f.s.s.W.{ - o 1.A.A.1.z + z 9 # . !.W N.e.; +.l.",
" X Xo.G G G 8 n @ n . (. X X XOX(.`.= X.- s 1.1.G f 3 %.G t @ @ & 6.f.r 0 * f.u.u.u.u.4 ' _ G G G G G z 9 8 O.0 * B.C F.y n %   ",
"S S '.G 1.H + 5 9 g F.).,.S A.{.(.`.= X.X.C.< Y  .n ! 6 9 + @ @ 0 a k.k.* 6.F.b M M b R c.1.x 9 9 9 9 H x t T G - N k.g.~ n %   ",
"G G A Y r. .L L w ../ i 1.&.3X{.4XN./ N N N N N & L L 0.J 0.:.a a +.i.f.f.F.7 X.X.X.R $.G O z J 2 u t H H + t r.C / u.~ B m & i ",
"1.1.W 5X] & `.`.`. X..1.=.i (.(.Z.o.).`.`.`.`.`.`.`.(.3 n E.u.u.u.u.u.u.6.b - - - C.=.1.G n 5 n V e =.z + + + 0 * f.u.a 0.i.4 X.",
"    -X X. g.(.oXi.+.3 F.  ).(.(.{.N. X(.OXOXOXOX(.(.(.).* ).{.f.s.N.N B.f.z.7 - Z $.1.o C 0 9 H F u t  .9.9.9.Q.M 3.e e v.$ #.X.",
"(.(.(.`.{.-X,Xg.V + v.).OX(.`.`.(.(.(.`.`.`.`.`.`.`.OX+X). X Xf.Z.* < %.. u.B.C.$.G g ' e &XU.{ u l 2 % , ^ ^ ^ #.C X./ / A.' - ",
"(.(.(.{., o.- l n @ n :.4X(.`.`.(.(.(.(.(.(.`.`.(.(.oX  $.!.`.f.o.G # n 6 . / f 1.g + H _ G ' N.i.i.i.6.Z.C X.C k.S.X.h.f =.D - ",
"& & i. XZ.1X' 8.4.6X# F 4X(.OX(.N.= = = = f.(.(.d.= = , ^ | <.#.o.' x t n < ,.=.j.G O.s P _ h n.e B.f.i - Z C ~ M W.~ Z j - R { ",
"+ @ v. X Xz.o.X.' I &X_.4X(.`.4Xi '.'._ G / 4X{.= f G R . Z G G - $ f x.+ [ _ =.f _ 1.^ 7 &.>.0 R = k.L.f j W.6.s R k.7.s y ' f ",
"8.+ Q., #.  ).U # # 5._.4X(.{.o , ,X-XW =.$.&.&.o.4 ` R . Z G j.k 0 n + n 3 3.=.%.e f f { W a.X i./ { e k.k.6.N.&._ s _ 1.$.C y ",
"C T ' / / 7 v.6 # *XE M.+X(.4X<.N d.  i #.S h G 7.c ' X.c 7.s ( 4.*X*Xa p.7 | =.' C { R - e 1XN !.* =.X.4 I.1XW. .x G x r.h A.M ",
"Z._ W `.%XV + + *X^ ^ 3. X(.OX(.d.^ $.P  X/ A._ =.j 4 M =.R - X.^ o.^ i g.M R f f h ' ~ k.{ =.j * * f =.=.=.1.G 9 z =.@X! ' &.=.",
"N.,., N N - Q.Q.C g.g.).`.OX`.(.{.g.d.  N Z.Z.A.R R 7.7.R X.' h N 5Xg.g.6.M c ~ ~ e s ' e 7 ~ ~ $ c R h f 7.o 7.G f R Z 2Xh P e "
};
