/* XPM */
static char *_1ad25e3c24d478da85f7fcbd65dcbe4[] = {
/* columns rows colors chars-per-pixel */
"64 64 230 2 ",
"   c #040002",
".  c #0B0103",
"X  c #01010A",
"o  c #0B040B",
"O  c #130102",
"+  c #1A0001",
"@  c #190901",
"#  c #120208",
"$  c #1C030D",
"%  c #1B0C0A",
"&  c #11100C",
"*  c #0C0D14",
"=  c #0D131B",
"-  c #081519",
";  c #191415",
":  c #13161B",
">  c #240805",
",  c #21030F",
"<  c #310506",
"1  c #27160A",
"2  c #2C1C0E",
"3  c #321B04",
"4  c #361907",
"5  c #391D0C",
"6  c #250311",
"7  c #2A0313",
"8  c #320316",
"9  c #360318",
"0  c #3E071E",
"q  c #281916",
"w  c #341B14",
"e  c #362309",
"r  c #3A230D",
"t  c #292011",
"y  c #2D221B",
"u  c #342012",
"i  c #352319",
"p  c #131823",
"a  c #2C2428",
"s  c #372728",
"d  c #34312D",
"f  c #332F35",
"g  c #2D3439",
"h  c #323134",
"j  c #34353D",
"k  c #451D03",
"l  c #5B1D18",
"z  c #621F17",
"x  c #4D2317",
"c  c #4B1D28",
"v  c #541D25",
"b  c #751B2A",
"n  c #7C1E30",
"m  c #422427",
"M  c #4A242A",
"N  c #442A2C",
"B  c #592629",
"V  c #4A302F",
"C  c #482B35",
"Z  c #582A33",
"A  c #523435",
"S  c #672934",
"D  c #772735",
"F  c #7D2434",
"G  c #742C3B",
"H  c #74323E",
"J  c #78433B",
"K  c #602E40",
"L  c #544546",
"P  c #764B4C",
"I  c #655449",
"U  c #73514F",
"Y  c #6F4D55",
"T  c #754A51",
"R  c #7A4F56",
"E  c #685456",
"W  c #74615E",
"Q  c #7D6D66",
"!  c #767278",
"~  c #822536",
"^  c #844846",
"/  c #A87D5D",
"(  c #8F5A67",
")  c #A55E6C",
"_  c #AB5C6A",
"`  c #B35B6C",
"'  c #B95D6B",
"]  c #896B6A",
"[  c #9C626D",
"{  c #8D796A",
"}  c #9B7B64",
"|  c #947F6A",
" . c #9C7B6B",
".. c #9F6770",
"X. c #8C7A75",
"o. c #937D74",
"O. c #9C7C71",
"+. c #967B7D",
"@. c #9B7E7F",
"#. c #A7636E",
"$. c #B6646F",
"%. c #A37A64",
"&. c #AA7C63",
"*. c #A37E6B",
"=. c #AA7B6C",
"-. c #B37968",
";. c #A66773",
":. c #AA6272",
">. c #A37B71",
",. c #A6797A",
"<. c #9B836C",
"1. c #8D817C",
"2. c #9B8375",
"3. c #95847C",
"4. c #988678",
"5. c #9C847B",
"6. c #A88067",
"7. c #A3826C",
"8. c #AB826D",
"9. c #B38760",
"0. c #A48372",
"q. c #AC8373",
"w. c #AC8A75",
"e. c #A2837B",
"r. c #A8887B",
"t. c #6E7386",
"y. c #7C7C85",
"u. c #777E8B",
"i. c #7C7D8A",
"p. c #767E92",
"a. c #827E86",
"s. c #897F82",
"d. c #817D8D",
"f. c #A17A84",
"g. c #A37F8B",
"h. c #7A8287",
"j. c #7D838D",
"k. c #7D8494",
"l. c #798897",
"z. c #828285",
"x. c #83838C",
"c. c #88858B",
"v. c #9E8282",
"b. c #9A8C87",
"n. c #838492",
"m. c #858994",
"M. c #868897",
"N. c #908C9A",
"B. c #A38582",
"V. c #B9818E",
"C. c #B88494",
"Z. c #BAACA8",
"A. c #BEB4B6",
"S. c #C698A2",
"D. c #EA9EA3",
"F. c #F59DAC",
"G. c #F99CAC",
"H. c #FB9EB2",
"J. c #C7B6AE",
"K. c #D4ADB4",
"L. c #C9B9B6",
"P. c #D9BBB7",
"I. c #F3A5AE",
"U. c #ECBDAC",
"Y. c #E5A5B1",
"T. c #ECA4B2",
"R. c #E5AAB4",
"E. c #E8ADB5",
"W. c #F4A2B2",
"Q. c #FDA3B3",
"!. c #F1A9B7",
"~. c #FEA9B5",
"^. c #EAC39F",
"/. c #DDCCB5",
"(. c #D7CABD",
"). c #DECCBC",
"_. c #DDD0BF",
"`. c #E8C7A7",
"'. c #E3C5AB",
"]. c #EBC5AD",
"[. c #ECCBAC",
"{. c #F2C6AA",
"}. c #F3C9AE",
"|. c #E5C3B5",
" X c #EAC5B4",
".X c #E5C9B6",
"XX c #ECCBB3",
"oX c #E3C6BB",
"OX c #E9C6BA",
"+X c #E4CCBB",
"@X c #EBCBBB",
"#X c #F5C5B5",
"$X c #FBC6B7",
"%X c #F3CAB3",
"&X c #F5C9BB",
"*X c #E9D4B5",
"=X c #F4D1B5",
"-X c #DCBFCB",
";X c #BCC6CB",
":X c #BDC7D7",
">X c #C5C5CE",
",X c #C8C6CB",
"<X c #C5C8CF",
"1X c #CAC9CE",
"2X c #DCCDC3",
"3X c #D6C9CA",
"4X c #DBD3C8",
"5X c #C3C6D3",
"6X c #CCC6D7",
"7X c #C5CAD3",
"8X c #CBCCD4",
"9X c #C4CADB",
"0X c #CBCDDB",
"qX c #D2CDD7",
"wX c #C8D4D7",
"eX c #CBD2DB",
"rX c #D1D1D9",
"tX c #E2CDC3",
"yX c #E9C9C4",
"uX c #FCCCC0",
"iX c #E7D2C5",
"pX c #F7D3C3",
"aX c #FFEFDF",
"sX c #C6CFE3",
"dX c #C9CEE1",
"fX c #C7D3E9",
"gX c #FFF1F0",
"hX c #FFF5F3",
"jX c #FFF8F7",
"kX c #FFFCFE",
/* pixels */
"$ $ $ $ $ $ $ $ $ $ $ $ $ $ $ $ $ $ $ $ $ $ $ , $ $ $ $ $ $ $ $ $ $ $ $ $ $ $ $ $ $ $ $ $ $ $ $ $ $ $ 9 9 c c c $ $ $ $ $ $ $ $ ",
", , , , $ $ $ $ $ $ , $ $ $ $ $ $ $ $ $ $ $ $ $ $ $ $ $ $ $ $ $ $ $ $ $ $ $ $ $ 6 6 6 6 , $ $ $ $ $ $ 9 9 0 0 c $ $ , $ $ $ $ $ ",
"0 0 0 0 $ , $ $ $ $ $ $ $ $ $ $ $ $ $ $ $ $ $ $ $ $ $ $ $ $ $ $ $ $ $ $ $ $ $ $ 9 9 c c c $ $ $ $ $ $ $ $ $ 7 0 $ $ c $ $ $ $ $ ",
"0 9 0 0 $ 7 c $ $ $ $ $ c 6 $ $ $ $ $ $ $ $ $ $ $ $ $ $ $ $ $ $ $ $ $ $ $ $ $ $ $ $ $ 9 c $ $ $ $ $ $ 9 9 9 9 9 9 9 9 c c c 0 0 ",
"0 9 0 0 , 7 0 $ $ $ $ $ 0 6 $ $ $ $ $ $ $ $ $ $ $ $ $ $ $ $ $ $ $ $ $ $ $ $ $ $ $ $ $ 9 c $ $ $ $ $ $ 9 9 9 9 9 9 9 9 c 0 0 0 0 ",
"9 0 0 0 9 9 0 0 0 $ $ $ 0 0 0 $ $ $ $ $ $ 9 9 c 7 $ $ $ $ $ $ $ 0 0 $ $ $ $ $ $ $ $ $ $ $ $ $ $ $ $ $ $ $ $ $ $ $ $ $ $ $ $ 0 0 ",
"0 0 c 0 9 7 $ 0 0 0 0 c $ $ $ 0 0 $ 9 9 c $ $ $ $ $ $ $ $ $ $ $ 9 ( K 9 $ $ $ $ $ $ $ $ $ $ $ $ $ $ $ $ $ $ $ $ $ $ $ $ $ 9 9 9 ",
"0 0 0 0 9 7 $ 0 0 0 0 0 $ $ $ c 0 $ 9 9 c $ $ $ $ $ $ $ $ S.Z R.E.Y.Y.H #.] $ $ $ $ $ $ $ $ $ $ $ $ $ $ $ $ $ $ $ $ $ $ $ 9 9 9 ",
"7 9 7 7 c 0 9 9 9 7 9 9 7 7 7 $ $ $ $ $ $ $ $ 7 7 7 7 7 R.T.T.T.W.I.D ` W.T.Y.# $ $ $ 7 9 c c $ $ $ $ $ $ $ $ $ 9 9 9 9 9 c , $ ",
"6 7 7 7 9 9 8 7 7 7 7 7 7 7 7 6 6 $ $ $ $ $ $ 7 7 7 S.[ !.W.Q.Q.W.~.H.F.Q.F.G [ , 7 8 7 7 9 9 8 $ $ $ $ $ $ $ $ 7 7 7 7 7 7 , $ ",
"$ $ 7 7 9 8 7 $ $ 7 7 7 7 7 7 7 7 $ $ $ $ $ , 7 7 7 E.) W.Q.b H.F.b Q.Q.Q.F W.#.+ 7 9 6 $ 9 9 c $ $ $ $ $ $ $ $ $ $ $ $ $ $ $ $ ",
"7 $ $ $ $ $ $ $ $ 7 $ $ $ $ $ $ $ $ $ $ 7 7 7 7 6 $ Y.W.Q.F ' Q.F ~.W.Q.b Q.` _ S A 7 6 $ $ $ 9 c c $ 9 9 9 9 0 0 0 c $ $ $ $ $ ",
"7 $ $ $ $ $ $ $ $ 7 $ $ $ $ $ $ $ $ $ , 7 7 7 7 , P.G H.n Q.' b F.F.W.D Q._ ` D ;.+ , , $ $ $ 9 c c $ 9 9 9 9 0 0 0 0 $ $ $ , $ ",
"$ $ $ $ $ $ $ $ $ $ $ $ $ 8 9 9 9 $ $ $ 7 $ $ $ $ K._ ~ ~ F.' I.W.$.Y.^ S ) G W.) > . # $ $ $ $ $ $ $ $ $ $ 7 9 0 0 $ $ $ $ $ $ ",
"$ $ 9 9 9 9 9 $ $ $ 9 9 $ $ $ $ $ $ $ $ $ $ $ 9 9 7 W.G.~ ~.D.I.#.v T T R v Y.D :.[ . # $ $ $ 0 c 0 0 $ $ $ $ $ $ $ $ $ $ $ $ $ ",
"$ $ 9 9 9 9 9 $ $ $ 9 9 $ $ $ $ $ $ $ $ $ $ $ 9 9 K.;._ D D.E.[ B T C N m R G :.;.O . # $ $ $ 0 0 0 0 $ $ $ $ $ $ $ $ $ $ $ $ $ ",
"9 9 # # $ $ $ $ $ $ $ # $ $ $ $ $ $ $ $ $ $ $ $ $ $ $  X&X&XN C Y C A.A.N R ;.S O . $ 8 0 0 0 9 9 9 0 9 9 0 8 $ $ $ $ $ $ $ $ $ ",
"# # # # $ $ $ # $ $ # # $ $ $ $ $ $ $ $ $ $ $ $ $ $ # iX]. XN E C A.kXkXN T S ..+ # 6 8 9 $ $ $ 0 0 0 0 0 $ $ $ $ , $ $ $ $ $ $ ",
"# $ $ $ $ $ # # $ $ # # $ $ $ $ $ $ $ $ $ $ $ $ $ $ $ @X{.$XP N L.kXkXa E M + ] ] # 6 9 9 $ $ $ 0 0 c 0 0 $ $ $ $ $ $ $ $ $ $ $ ",
"$ $ $ $ $ $ # # $ $ # $ # $ $ 0 0 0 0 0 $ $ $ $ 8 0 $ R ^ -.B < jXkXs I A P yX+   . 6 9 0 9 9 0 $ $ c 0 0 9 9 9 c c 0 0 0 $ $ $ ",
"$ $ $ $ $ $ # # $ $ 6 6 6 6 6 0 0 9 0 0 6 6 6 6 7 9 6 $ J -.z ^ gXZ jX@ U Z f.. . # 7 9 0 9 9 0 6 6 9 9 9 8 8 8 9 9 9 0 0 6 $ $ ",
"$ $ $ $ $ $ # # $ $ 0 0 0 0 0 0 0 $ 0 0 0 0 0 0 7 $ 9 7 =.$X-.l l J > I V f.f.. . $ 7 8 9 9 9 9 9 9 $ $ $ $ , $ $ $ $ 0 c c , $ ",
"# # $ $ $ $ $ 9 9 9 # # 9 9 9 9 9 $ $ $ 0 0 0 0 0 0 $ $ } #X&X&XuX.XI d   . + # $ 6 7 7 7 7 7 7 9 9 $ 7 7 9 7 $ $ $ $ 0 c 9 6 $ ",
"# # $ $ $ $ $ 9 9 9 # # 9 9 9 9 9 $ $ $ 0 0 0 0 0 0 $ $ + 7.*.oXOX@X2   . . 5.w y   , , $ 7 7 7 9 9 $ 7 7 9 7 $ $ $ $ 0 c 9 , $ ",
"# # $ $ 9 9 9 $ $ $ $ $ # # $ 9 9 9 9 9 $ $ # # # $ # 1 '.+ +X2X2Xi + 2.5.O  .q.7.<.5 tX4X  # $ 7 7 7 $ $ 7 6 $ 7 7 7 7 7 $ $ $ ",
"0 0 $ $ 9 7 # 9 9 $ $ $ # # $ $ $ # $ $ $ # # # J.+X% | w.} .   . . B.O.+ w.7.].].%X} @X2 y # , $ $ $ $ $ $ $ $ $ $ $ $ $ $ $ $ ",
"0 0 $ $ 9 7 # 9 9 $ $ $ # # # $ # # $ $ $ $ # # .Xw.1 } %.7.e.. 5.. 4.+ 2.} 4 k }.`.r { 2 y . $ $ $ $ $ $ $ $ $ $ $ $ $ $ $ $ $ ",
"# $ $ $ $ $ # # $ 9 $ # # # $ $ # # $ $ $ $ # P. .> 0.&X}.{. .+  .+ . ).+Xx } [.}.XX3 <.iX2X; . $ $ $ $ $ $ $ $ $ $ $ $ $ $ $ $ ",
"7 7 7 7 7 6 $ $ $ 9 7 7 # # # # # $ $ $ $ $ $ % > 7..X X{.}.#Xq.%XXX/././.4 @Xq.#X X@Xe u w v.. 6 9 $ 9 9 $ 6 8 9 9 9 8 8 $ $ $ ",
"9 9 9 9 9 7 $ $ $ 9 9 9 $ # # # $ $ $ $ $ $ I ] .X2.).5 %X/ / &./ [.e r /.4 5 |.=.q. .<.).tX@.. 6 9 $ 0 c $ 7 9 0 0 0 9 9 $ $ $ ",
"$ $ $ $ 9 9 9 9 9 9 $ $ 9 9 9 9 9 $ $ $ $ $ L.+X4.. q u [.`.9.^.{.`.[.3 r +X@X7.*.0.'.+Xb.y q . 6 9 c $ $ $ $ $ $ $ 0 0 c c , $ ",
"# $ $ $ 9 9 9 9 9 9 $ $ 9 9 9 9 9 $ $ $ $ $ % % %   4X(.XX{./ {.[.[.}.XX.X+XO.+ O 3 5 r 1 t y . 6 9 0 $ $ $ $ $ $ $ 0 0 c c , $ ",
"# 9 9 9 # # # # # $ $ $ # 8 9 # # # # $ $ $ % 6 ).. . . r.=.-.&.7.} 6.8.+ + + 5.  & 3 3 *X<.XX>.$ 8 0 0 0 $ $ $ $ $ $ $ $ 7 $ $ ",
"$ $ $ $ # # # # $ $ $ $ 9 9 9 9 9 9 9 9 9 Q +X.X .2.. o.hXU.=.&X|.0.aX#X@XO.,.v.    +XXX'./ &.*.# 7 0 0 0 $ 7 9 0 0 $ $ $ $ $ $ ",
"$ $ $ $ $ $ $ $ $ $ $ $ 9 9 9 9 9 9 9 9 9 P.q.=.=.7.@ X.s hXgXhXhXhXv #X%.w.>.e.. . e.>.0.pXU.0.. 6 0 0 0 $ 7 9 c 0 $ $ $ $ $ $ ",
"$ 0 0 0 0 8 $ $ $ $ $ $ 9 9 9 9 9 9 9 9 $ pXU.&.=. .O + +.m m M M c ,.=.+ *.r.+   . + ,.@X|.&XO.. 6 0 0 0 7 7 7 7 7 0 7 7 $ $ $ ",
"9 0 9 9 0 0 9 $ $ $ $ # $ $ $ $ $ $ $ $ $ 1 4 7.0.+ B.+ f.M C.V.C.+ ,.r.+ o..   # , # v.yXoXOXe.. $ # $ $ 7 7 7 $ $ $ $ $ $ 9 9 ",
"9 0 9 9 0 0 9 $ $ $ $ # $ $ $ $ $ $ $ $ b.tX+X5 + 5.+.+ -Xg.,.> f.$ +.{ 3..   . 6 8 7 2 w w u . . $ $ $ $ 7 7 7 $ $ $ $ $ $ 9 9 ",
"9 9 9 9 9 9 0 $ $ $ # # # # $ $ $ $ # $ 1 1 5 O 4.X.O s.8X8X3XP.3X3X3X; ; y.. $ 9 0 7 _.).4.2   . # $ $ $ 9 9 9 $ $ $ $ $ $ 9 9 ",
"6 , 6 6 9 8 8 6 6 6 6 6 7 $ # # $ 6 # # o.yX.X+ O i   z.- = h h ; & : h.i.M.X $ 7 8 $ e 3 u   . . # $ 6 6 7 7 7 $ $ $ 7 7 7 7 7 ",
"# # # # 9 7 $ 9 9 9 9 9 0 $ $ $ $ 9 $ # 4.OXXX].@X. . z.eX- g = g ;XwXj.6Xd.n.  tX@X'.=X7.O.. q # # $ 9 9 $ $ $ $ $ $ 9 9 9 , $ ",
"# # # # 9 9 9 9 9 9 9 9 0 0 0 0 0 $ $ # 2.OX} 8..XO . ,X;Xp = : j wX;Xm.6Xd.x.  oX*.=X^.%.r.. s . # 9 0 0 0 7 $ $ $ 9 9 9 9 0 0 ",
"# # # # 9 9 9 9 9 9 9 9 0 0 0 0 0 $ $ # 5.@XXX} O . . 8XeX= j * a = 0X7X6XrXn.  O  .XX}.&.=.+ +.. # 9 0 0 0 7 $ $ $ 9 9 9 9 0 0 ",
"# # # # # # # # # # # # 9 0 0 0 0 0 0 0 # 2.0.0.+ 1.  8X7X* h ; j : 8X<X0X5Xj.n.  iX.X7.8.> >.B.. $ 8 0 0 $ $ $ $ $ $ 9 9 $ $ $ ",
"9 0 0 0 0 7 # # # # # # # # # # # $ 9 9 9 $ + + . b.  ;X8X: h & f f ,X>XrX5Xl.h.X   . . + *.0.o.. , 9 0 0 $ $ $ 9 9 9 9 9 7 7 7 ",
"9 0 0 0 0 7 # # # # # # # # # # # $ 9 9 0 o.5.e.O . X 0X8X* h z.h j 1X8X1X7Xk.l.k.  # # 4.2.2.O . 6 9 0 0 $ $ $ 9 9 9 9 9 7 7 7 ",
"9 # 9 9 0 0 0 # # # # # # # # 9 9 9 9 9 9 6 4.o.o.  c.;X5Xp a c.X j.8X,X8X1XM.j.j.X . # .       . # 8 9 9 $ 6 9 7 7 7 7 7 7 7 7 ",
"# # # # 9 9 0 # # # # # 9 9 9 $ $ $ $ $ $ 7 $ # . . z.7X0Xi.N.y.X j.8X1X1XqXy.qXx.  . # # , $ $ 6 7 9 9 9 $ 6 9 9 9 0 7 7 $ $ $ ",
"# # # # 9 9 0 # # # # # 9 9 9 $ $ $ $ $ $ 9 7 6 , $ z.<X6Xn.d.x.X 7Xj.7X8X8Xx.1Xz.  . # $ 8 7 8 9 9 9 9 9 $ 6 9 9 9 c 7 7 $ $ $ ",
"# # # # # # # # # 9 9 9 # 6 7 9 9 7 9 9 9 $ $ 0 8 7 z.rXi.5XM.n.X <X8Xm.u.x.j.8Xx.1X. , 9 $ $ 9 $ $ 9 0 0 0 0 0 $ $ $ $ # $ 0 0 ",
"# # # # # # # $ $ 9 8 8 # 6 6 8 8 6 9 9 9 6 6 0 9 9 h.i.0X0XM.i.x.X 8X7Xk.k.k.7Xx.<XX $ 7 6 6 9 6 6 9 0 0 0 0 0 $ $ $ $ # , 9 9 ",
"# # 9 9 9 9 9 0 0 0 # # # # # # # # 7 7 7 9 9 9 9 9 7XeX0Xt.M.M.i.X m.5XdX:X9X9Xu.eXy.# , 9 9 9 9 9 9 0 0 9 9 0 $ $ 7 $ # 0 , $ ",
"9 9 9 9 9 9 0 0 0 9 # # 9 9 9 # # # 7 7 7 7 7 7 9 0 8X5Xk.M.9Xu.x.o 5XM.dXsXfX:Xk.dXn.. 6 9 9 0 0 0 0 9 9 0 0 9 7 7 # # $ 0 , $ ",
"9 9 9 9 9 9 0 0 0 9 # # 9 9 9 # # # 7 7 7 7 7 7 9 0 j.n.k.0Xp.n.x.X x.0Xp.l.p.l.k.9Xi.o , 9 9 0 0 0 0 9 9 0 0 9 7 7 # # $ 0 , $ ",
"9 9 # # c 8 # # # # 9 9 9 # # # # 7 # # # # # # # # . x.8Xi.M.d.y.X m.n.9Xk.k.k.9Xn.M.. , 0 0 0 $ $ 9 0 0 0 0 0 $ $ $ 0 0 $ 7 7 ",
"# # # # # # # # # 0 # # # # # # # # # # # # # # # # . . ! c.a.c.c.X X n.j.5Xn.x.z.a.X . # 0 0 9 0 0 0 7 7 7 7 7 7 7 7 $ $ 7 7 7 ",
"# # # # # # # # # 0 # # # # # # # # # # # # # # # # # . . z.s.      . X X z.c.s.1.    # # 0 0 9 0 0 0 7 7 7 7 7 7 7 7 $ $ 7 7 7 ",
"# # # # 7 7 7 0 0 0 0 0 # # # # # # # # # # # # # # # # 8 b.X.  . $ 7 6 $   . 3.3.. # 6 8 9 9 $ $ $ $ $ $ 7 7 7 $ $ 7 9 9 9 7 7 ",
"7 7 # # $ $ 7 8 8 8 0 0 # # # # # 7 7 7 7 # # # $ 7 7 7 6 ] X.. # , 9 9 8 $ # 5.4.. # 6 6 9 9 8 6 6 $ 7 7 8 7 $ 7 7 $ 9 9 6 8 8 ",
"0 0 # # # $ 7 7 7 7 0 0 # # # # # 9 9 9 9 # # # 6 9 9 9 L.X.W # # $ 9 9 0 9 7 2X+X2.# $ $ 9 9 0 7 7 $ 9 9 9 7 $ 9 9 $ 9 9 $ 9 9 ",
"7 0 7 7 7 , # 0 0 0 0 0 # # # 9 9 # # # 9 9 9 9 7 $ Z.E 2X(.E # 7 0 c 0 0 $ # 7 2XtXJ., 8 $ $ $ $ # 9 $ $ $ $ $ 9 9 9 9 9 9 , $ ",
"7 0 7 7 7 , # 0 0 0 0 0 # # # 9 9 # # # 9 9 9 9 7 $ 8 7 # # # , 9 0 0 c 0 $ $ 7 J.Q Z.L 7 # $ $ $ $ 9 $ # # $ # 9 9 9 9 9 9 , $ ",
"# 9 # # # 6 0 0 0 7 7 7 # # # # # 7 9 9 # 7 7 9 9 9 $ $ 6 $ $ , 6 7 7 6 $ 7 7 9 7 $ # . # 8 9 9 $ # 9 9 9 9 9 9 0 0 9 0 0 7 9 9 ",
"# 7 7 7 7 7 7 7 7 # # # # # # # # # # # 7 # # 7 7 7 9 9 7 7 7 9 # # # # $ 7 7 # # # 6 , 6 # $ $ 7 7 7 9 9 7 7 7 9 9 7 7 7 9 , $ "
};
