/* XPM */
static char *_a88ed1e40c6415d8cdea55f7a7f1a2e[] = {
/* columns rows colors chars-per-pixel */
"64 64 228 2 ",
"   c #040002",
".  c #0C0104",
"X  c #00010A",
"o  c #110105",
"O  c #1B0101",
"+  c #1B0D05",
"@  c #150209",
"#  c #1C030D",
"$  c #140B0B",
"%  c #1B0C0C",
"&  c #0C110B",
"*  c #1F1107",
"=  c #1E100B",
"-  c #0D0B14",
";  c #0C131A",
":  c #081419",
">  c #121412",
",  c #13151C",
"<  c #1B161D",
"1  c #240703",
"2  c #21030F",
"3  c #271406",
"4  c #23110B",
"5  c #2C1D0C",
"6  c #351503",
"7  c #341E0C",
"8  c #381908",
"9  c #250311",
"0  c #2B0313",
"q  c #2B0C18",
"w  c #330316",
"e  c #360418",
"r  c #3C061C",
"t  c #2C1916",
"y  c #341712",
"u  c #38210A",
"i  c #2C2114",
"p  c #312111",
"a  c #37241A",
"s  c #141824",
"d  c #3A1321",
"f  c #2B2529",
"g  c #3A2627",
"h  c #34312D",
"j  c #322F34",
"k  c #2B3436",
"l  c #323233",
"z  c #34353C",
"x  c #420D1F",
"c  c #591E18",
"v  c #5B231A",
"b  c #431724",
"n  c #551C25",
"m  c #751B2B",
"M  c #791F31",
"N  c #4A242B",
"B  c #432929",
"V  c #57282D",
"C  c #482D36",
"Z  c #4C3033",
"A  c #55343A",
"S  c #66242E",
"D  c #692A35",
"F  c #782837",
"G  c #76443B",
"H  c #523B44",
"J  c #574A4B",
"K  c #6B494A",
"L  c #754B4D",
"P  c #655449",
"I  c #6F4D55",
"U  c #774D54",
"Y  c #695457",
"T  c #765855",
"R  c #7B6358",
"E  c #615A65",
"W  c #676269",
"Q  c #70686B",
"!  c #822536",
"~  c #823F4E",
"^  c #824845",
"/  c #814856",
"(  c #815F53",
")  c #A67C5E",
"_  c #985261",
"`  c #AA5B6B",
"'  c #BA5D6B",
"]  c #B65D71",
"[  c #8B6867",
"{  c #9C636D",
"}  c #8E786A",
"|  c #9B7B64",
" . c #99786A",
".. c #9C7C6C",
"X. c #8F6F70",
"o. c #9E6770",
"O. c #8F7076",
"+. c #8C7B74",
"@. c #947C75",
"#. c #9A7B73",
"$. c #947D7E",
"%. c #997D7B",
"&. c #A8626E",
"*. c #B5646F",
"=. c #A57A64",
"-. c #AA7C63",
";. c #A37669",
":. c #A37C6C",
">. c #AB7C6B",
",. c #B37968",
"<. c #A86572",
"1. c #A57A79",
"2. c #A8815A",
"3. c #98836B",
"4. c #9D816E",
"5. c #8D8077",
"6. c #978677",
"7. c #9D8375",
"8. c #94837A",
"9. c #9D837B",
"0. c #9A897D",
"q. c #A3826C",
"w. c #A9836B",
"e. c #B08960",
"r. c #A48373",
"t. c #AB8473",
"y. c #A2837A",
"u. c #AC8878",
"i. c #7D7B85",
"p. c #757A88",
"a. c #7C7B8A",
"s. c #787E91",
"d. c #877E85",
"f. c #817E8B",
"g. c #A17B84",
"h. c #A77B88",
"j. c #7E8286",
"k. c #77868F",
"l. c #7C838D",
"z. c #7D8393",
"x. c #7A8998",
"c. c #838285",
"v. c #83838D",
"b. c #89858B",
"n. c #998584",
"m. c #9C8C83",
"M. c #848492",
"N. c #838894",
"B. c #82869A",
"V. c #898A99",
"C. c #A48285",
"Z. c #B7818E",
"A. c #B78494",
"S. c #ADA29B",
"D. c #BEB4B7",
"F. c #CD949C",
"G. c #D098A0",
"H. c #EA9EA3",
"J. c #F49DAE",
"K. c #F899AB",
"L. c #FB9EB1",
"P. c #D4ADB3",
"I. c #C2B3BC",
"U. c #D9B9B9",
"Y. c #E7A2AE",
"T. c #F4A6AF",
"R. c #EBBFAC",
"E. c #ECA5B2",
"W. c #E8A9B4",
"Q. c #F4A2B2",
"!. c #FDA3B4",
"~. c #FAA9B6",
"^. c #E9BEB8",
"/. c #E9C49E",
"(. c #DDCCB5",
"). c #D4C7BB",
"_. c #DDCBBD",
"`. c #DDD0BF",
"'. c #EAC7A5",
"]. c #E4C6AC",
"[. c #EEC5AD",
"{. c #ECCBAA",
"}. c #F4C6AB",
"|. c #F2CBAF",
" X c #E7C4B6",
".X c #EBC3B4",
"XX c #E5CAB5",
"oX c #ECCBB3",
"OX c #E4C6BA",
"+X c #E3CCBC",
"@X c #ECCABB",
"#X c #F5C4B3",
"$X c #F3CAB2",
"%X c #FAC7B8",
"&X c #F4CBBA",
"*X c #EAD1BB",
"=X c #F4D1B5",
"-X c #DDBFCB",
";X c #BCC6CC",
":X c #BDC8D3",
">X c #C5C6CD",
",X c #C6C8CE",
"<X c #CBC9CD",
"1X c #D6C9C7",
"2X c #DCCDC4",
"3X c #D7D5C9",
"4X c #C4C6D4",
"5X c #C9C5D6",
"6X c #C6CAD4",
"7X c #CACBD4",
"8X c #C5CBDB",
"9X c #CBCDDC",
"0X c #D1CDD3",
"qX c #CAD2DA",
"wX c #C8D4D8",
"eX c #D3D1DA",
"rX c #E3CBC2",
"tX c #E7C8C4",
"yX c #F6CCC1",
"uX c #E3D1C3",
"iX c #EDD1C3",
"pX c #F9D2C4",
"aX c #FEF0DB",
"sX c #C8D4E2",
"dX c #FFF3EF",
"fX c #FFF5F3",
"gX c #FFF8F6",
"hX c #FFFCFE",
/* pixels */
"# # # # # # # # # # # # # # # # # # # # # # # # # # # # # # # # # # # # # # # # # # # # # # # # # # # 0 e r x r 9 # # # # # # # ",
"0 0 0 0 # # # # # # # # # # # # # # # # # # # 2 # # # # # # # # # # # # # # # # 9 9 0 0 0 # # # # # # 9 0 w r r 9 9 0 2 # # # # ",
"r r r r 2 # # # # # # # # # # 2 # # # # # # # # # # # # # # # # # # # # # # # # 0 e r r r 9 # # # # # # # # 0 r 9 0 r 0 # # # # ",
"r e r r 2 0 e 9 # # # 9 e 0 # # # # # # # # # # # # # # # # # # # # # # # # # # 2 9 9 e r 9 # # # # # 9 w w w e w w e r r r e e ",
"r r r r 9 w r 0 9 # # 9 r w 9 2 # # # # # 2 9 9 9 # # # # # # # 9 9 # # # # # # # # # 0 e 2 # # # # # 9 0 0 0 0 0 0 0 w e e r x ",
"r r r r e r r r w # # 9 r r r 9 # # # # # 0 e r 0 # # # # # # # w r 2 # # # # # # # # # # # # # # # # # # # # # # # # # # # w x ",
"r r r r e 0 0 r r w w w 0 0 0 e 0 # 0 w w 0 9 0 9 # # # # # # # 0 r e 0 # # # # # # # # # # # # # # # # # # # # # # # # 2 0 w r ",
"r r r r e 0 9 r r r r e 2 # 9 e 0 # 0 e r 9 # # # 2 A 2 2 H F.G.U 0 r w 9 # # # # # # 2 2 9 2 # 2 # # # # # # # 2 2 2 2 9 e w w ",
"0 e 0 0 r r w e w 9 w w 9 9 9 2 # # # 2 2 # # 9 9 d E.Q.~ b Q.Q.E.E.W.h.w 2 # # # # # 9 e r w # # # # # # # # # w w w w e r 0 2 ",
"9 9 9 0 r e w 9 9 9 0 0 9 9 9 9 2 # # # # # 2 9 b b J.!.K.L.!.!.!.~.Q.~./ C.9 0 w 0 0 0 9 r e 0 2 # # # # # # # 9 9 9 9 9 0 9 # ",
"# # 9 9 w 0 9 # 2 9 9 9 9 9 9 9 9 # # # # # 2 9 / Q.M !.!.!.m J.L.m !.Q.` W.9 w x r r 0 # w r r 0 # 2 2 2 2 2 2 2 2 2 # # # # 2 ",
"9 # # 2 2 2 # # 2 9 9 # # 2 2 # # # # 2 9 9 q b _ ` !.m !.Q.~.F !.' F !.Q.Y.o 9 r x r 0 # 2 9 e r w # 9 w w e r r r r 9 # # # # ",
"9 # # # # # # # 2 9 2 # # 9 9 9 9 # # 2 9 9 9 { n ] ` ~.F Q.J.J.m ' !.M L.F U.# 0 w w 9 # # 9 0 w 0 # 9 0 0 e r r r w 9 # # # # ",
"# # # # # # # # # # # # # 0 w w 9 # # 2 9 9 # ` Q.F ` S ^ Y.*.Q.T.' K.! ! ` P.@ # # # # # # # # # # # # # # 9 e r e # # # # # # ",
"# # 9 w w w 0 2 # # 9 0 # 2 9 9 2 # # # 2 # { &.F Y.n U L L n &.T.H.!.! L.Q.1 . @ # # # # # 9 e e e e 9 # # 2 9 9 9 # # # # # # ",
"2 2 9 0 0 0 0 # # # 9 0 # # # # # # # # # # # <.&.D U B B C L V { W.H.F ` <.P.  @ 2 9 9 9 9 0 r r r r 0 9 9 9 # # # # # # # # # ",
"w w 9 # # # # # # # # # # # # # # # # # # # # @ D <.U B D.D.C I C B &X%X.Xo   @ 9 w w r r r r e e r r r e r 0 # # # # # # # # # ",
"9 9 # @ @ @ @ @ @ @ @ # # # # # # @ @ # # # # @ o.D L B hXhXI.C Y B .X[.iX  . # 0 w e e r 0 9 9 e r r r r 0 9 # # # # # # # # # ",
"@ @ @ @ @ @ # # # # @ @ @ @ # # # # # # # # # X.[ O N Y f hXhXI.g L %X#XtX  # 9 0 w w e w 9 2 9 e r r r r 9 2 2 9 9 9 9 2 # # # ",
"# # @ @ # @ # # # @ @ @ @ @ # e r r r w @ # # @ @ tXK Z Y h hXgX1 v ,.^ T   @ # 2 9 w r r w e r 0 0 r r r w w w r r r r e # # # ",
"# # # @ # # @ @ @ @ 9 0 0 0 0 r r 0 r r 0 0 0 9 # g.V I + gXV dX^ v ,.G . . @ # # 2 w e r e e r 0 9 0 0 0 9 9 0 0 w w r r 0 9 # ",
"# # # # # @ # # # # w r r r r r 0 # e r r r r r 0 g.g.Z P 1 G c c ,.#X:.  . # # # 2 9 w w w w w e 0 # # # # # # # # # e x x 0 # ",
"@ @ # @ @ @ # 9 w w 9 9 e e e e 0 # 9 0 r r r r r O .   h P .XyX&X&X$X| . # 9 w 9 9 9 0 0 0 0 0 w 0 # 9 9 w 9 # # # # e r e 9 # ",
"@ @ @ # 2 2 2 9 0 9 # # 9 0 0 w 0 9 9 9 w w 0 t y 9..     5 @X XOX4.q.O . # 9 0 9 9 9 9 9 9 9 9 w 0 2 9 9 w 9 # 2 2 2 w e 0 9 # ",
"@ @ @ # w w w # # # # # # # # w e e w 2XrX4 4.q.u...o 9.7.o t 2X_.+XO XXp . o @ 9 9 9 9 9 # # # 9 9 9 2 # 9 9 # 9 9 9 9 9 # # # ",
"w w 9 # w 0 2 9 9 @ @ # @ @ # # 2 2 9 % @X| $X[.[.w.u.o #.C.    . o | u.@.5 +X_.@ # 2 9 9 9 9 9 9 9 2 2 # 2 # # 2 2 2 2 2 # # # ",
"e e 9 # 0 9 # 0 9 # # @ # # @ @ @ @ % % } 3 '.|.6 6 | 7.o 6.  9.. r.>.=. .6 t.XX3 o # 9 9 9 9 9 2 # # # # # # # # # # # # # # # ",
"# # # @ # # # # 2 w 2 @ @ # @ @ # @ 2XuX3.3 oX|.[.| 7 +X_.. O ..O :.}.#X&Xu.6 q.*X. # # # # # # # # # # # # # # # # # # # # # # ",
"9 9 9 9 9 2 @ @ 2 w 0 9 # @ @ @ @ %.% = * XX#X#Xt.@X4 (.(.(.oX$Xw.$X}.}..XOXr.8 8 o # 2 # 0 0 # 0 0 # 0 0 2 9 9 0 w w 0 9 # # # ",
"w w w w e 9 # # 9 w w 0 # # # # # %.rX_.3...t.>. X4 + (.5 u {.) -.) ) $X7 _.7.+X4.9.# 9 9 r w 9 r r 9 w r 2 9 w r r r r w 9 # # ",
"# # # # w w w w w e 9 2 w w w w 9 % % m.+X].r.:.q.@XXX3 3 {.'.{./.e.'.oXp i   6.OX_.o 0 r r r r r r r 0 2 # # 2 2 0 r r r r 0 # ",
"# 9 9 9 9 9 9 9 9 9 # # 9 w w 9 2 % % + 4 + +   . ..+XXXoX|.{.{.{.2.{.XX).3X  p p p o 9 r r r r r r r w 0 # # # # 9 w w w e 0 # ",
"2 w w w # @ @ @ @ @ @ # # 9 w # :.oX3.*X+ + $ @ 7.@ . O w.w.| q.-.>.>.y.    . +X7 5   # 0 w r r r r r r r 2 # # # # # # 2 9 9 # ",
"# # # # # @ # @ @ @ @ # 0 w w 0 :.,.) ].oXXX@ 2 9.1.#.@X#XaXr.XXoX:.^.fX5.  y...XX+X0.. # 9 9 r r x r r r 2 9 w e 0 # # # 2 2 # ",
"# 2 9 9 9 # @ # # # @ # w e e e r.R.pXr.:.y.o # y.:.u. .#Xv fXgXfXdXgXg +.O :.>.>.t.U.. @ 2 0 r r r r r r 9 9 e r e 0 9 2 # # # ",
"9 r r r r 0 @ # # # @ # w e w w ..&X X@X1.  . o o r.:.o >.1.b N N B B $.O o ;.>.-.R.pX. # w r r e e r r r 9 9 0 0 w r 0 9 # # # ",
"w r r r r e 9 # # # @ # 2 2 2 2 7.@XOXtXn.  . @ # @ @.. u.1.O A.Z.A.N g.O n.O r.q.u y . 2 w w w 0 0 9 0 0 9 9 9 9 9 0 9 2 # 9 0 ",
"e r r e r r e # @ # # @ @ @ # # o = = % $ . o @ # 2 o +.X.%.O g.1 1.h.-X. $.y.O 7 OXrXm.@ 9 0 9 9 2 @ # # 9 0 9 2 # # # # # 0 e ",
"e e e e e r r # @ @ @ @ @ @ # # @ % 0._.`.. o @ # # W @ $ 1X1X1XU.1X0X7Xc.. +.7.. 7 y y . o # # # # # @ # w w w 2 # # # # # 9 e ",
"9 9 9 9 w w 0 9 9 9 9 9 0 2 @ @ # 2 4 + + . o @ # 9 a.f.j.> & > l l ; : j.  a O O XXyX#.  o @ @ # # # 2 9 9 9 9 2 # # 9 9 9 9 9 ",
"o o o @ w 9 9 w e e e e r 0 # # q 9 ..w.=X'.@XrX# i.f.5Xl.wX;Xk ; k : qXc.  . XX].oX@X7.  o # # @ # # 0 w # # # # # 2 0 e e 9 2 ",
"o o o @ w e w e e e e e r r r r q # u.=./.=X:.OX. v.f.9XN.;XwXz , ; s :X>X  O XXw.| @X7.  . @ @ @ # w r r r 0 # # 9 w w e e r r ",
"o o o @ 9 9 9 9 9 9 9 0 r r r r O.# >.-.$XoX .o   M.eX7X6X9X; f - z ; qX7X  . O | XX@Xy.  @ 2 2 2 9 w r r w 9 # # 2 0 w w 0 w e ",
"o o o o o o o o o o o # w r r r X.[ # =.q.OXuX  N.l.,X7X,X9X, z < l - 6X7X  8.O 7.7.y.O . 2 e w e e e r r # # # # # # 0 w 2 # # ",
"0 w w w w 9 o o o o o o # # # # T  .( @ o . . X k.x.>X0X>X>Xj j > l , 7X;XX m.o O O o   @ 9 e e r r r r r # # # 9 0 0 w w 9 9 9 ",
"e e r r x 0 # o o o o o o o o @ @ P R T # 9 9 l.x.x.,X<X0X<Xz l c.l - 7XqXX . O 9.9.@.. # 9 0 0 e r r r e # # 2 w w w w w 9 9 9 ",
"0 @ 0 e r r r # o o o o o o @ 0 w 9 # # 9 w w j.z.V.<X<X>X7Xl.X v.f s 4X:XN.  @.@.9.  . @ # # # # 2 w e w # 9 w 0 9 9 9 9 9 9 9 ",
"# o # 9 e r r # o o o @ 9 9 9 9 9 9 2 # 2 0 w c.9Xa.0X<X7X7Xl.X i.V.a.9X6Xj.          o @ 9 9 9 9 0 w e w # 9 e w w e 0 9 9 9 2 ",
"o o o @ 0 e e # o @ @ # w w w 9 # # 2 2 2 0 9 f.7Xv.9X7X7Xv.6XX v.f.M.7X,Xc.  . . . o @ # 0 w e w w w e w # 9 e w e r 0 9 # 2 2 ",
"o o o o @ @ @ o # w w 0 @ 2 0 w 0 9 w w w 9 7Xv.7Xl.M.a.V.7X,XX M.V.4Xa.eXc.. . o @ @ 9 w 2 9 w 9 9 w r r r r r 2 # # # # # 0 r ",
"o o # 2 2 2 2 9 0 r 0 2 o # # 9 9 # 0 w w 9 >Xv.6Xz.z.z.6X7XX M.a.B.9X9Xa.j.. o # # # 9 0 9 0 w 0 0 w r r r r r # # # # # 0 0 w ",
"o o 9 e e e e r r r # o o o o o o o 9 9 9 Q qXp.8X8X:X9X4XV.X f.B.B.p.9XqX6X  o # # # 2 9 w e e e e e r r e r r # # 9 # 2 r 0 # ",
"0 0 w e w r r r r e # @ 0 0 0 @ o o 9 9 9 W qXl.:XsX8X9XM.>X- v.s.8XB.z.4X9X  # 9 9 9 0 w w r r r r r r r r r e 9 2 # # 2 r 0 # ",
"e e 0 0 e e w w 0 9 2 2 w w 9 @ o # 2 2 2 J 6Xz.x.s.z.s.7Xf.X v.M.s.9Xz.M.v.  # 9 9 0 w e e r r e e r r r r r e 9 2 # 2 0 w 0 2 ",
"w w # @ r 0 o o o o 9 e w 9 o o # 9 @ o o H M.8Xz.z.z.8Xv.b.  i.f.V.a.7Xv.X . # 9 0 w w e r r r 9 9 w r r r r r # @ # e e # 2 9 ",
"# # @ o # # o . # 0 9 # # @ o o @ # o o o . E M.M.M.4Xl.v.X   c.b.f.b.f.X   . # 0 w w 0 9 r r r e e r e w w w w 9 9 9 9 9 9 9 9 ",
"o o o o @ @ @ # 9 r 9 @ o o o o o o o o o o . d.d.b.b.X X         d.c.    . @ 9 w e e 9 9 r r w e r e 0 9 9 9 9 9 9 9 2 2 0 0 9 ",
"o o o @ 9 9 9 r r x r w o o o o o o o o o o o n.n.      . . . . o +.n.  o o # w w e r r w e 9 # # # # # # 9 9 9 # # 9 w w w 0 9 ",
"0 0 # o # 2 9 w e w r e o o o o # 9 9 9 9 @ o 9.0.    o # # 2 9 o m.8.  # 2 0 w e e r w 9 w w 0 9 # @ 2 9 w 9 2 9 9 2 w w 9 0 w ",
"r r 9 o o # 9 9 9 0 r e o o o o 2 w w e e 2 J +X+X  @ 2 # 0 e e # 6.0.2X# 9 w w w w w 9 2 w e r 0 9 # 9 w w 9 # w 0 # 0 w 2 9 w ",
"w r w 9 9 # @ e r r r e o o @ 0 9 @ @ # w ).uX+X  . 2 9 # 0 e e w +.).S.Z Q 2 w 9 9 w w w 2 # # # 2 w 9 # # # # w w w w w w 9 2 ",
"9 r 9 2 2 2 9 r r e e 0 o o o 9 2 # # 2 8.1Xm.2X. o 9 9 9 0 w w w 0 # o # @ 2 w 9 9 w 0 9 9 2 2 # # w 9 2 2 2 9 e r e r e w 9 9 ",
"# w # o o 9 r r e 9 9 9 o o o o # 9 w 9   .     . 2 2 9 w 0 9 9 9 9 2 @ o # 9 w w w 9 2 # w w w # # w w w w w e r r w r r 9 w w ",
"# 0 9 2 2 9 w w 9 # # @ o o o o @ # # # # o . . # 9 0 0 0 9 0 w 2 @ # # # 9 9 2 2 9 w 0 9 2 2 2 9 9 0 w w 0 0 0 e w 0 0 w w 9 9 "
};
