/* XPM */
static char *_277338e0db44bafbef4d2f14379baf7[] = {
/* columns rows colors chars-per-pixel */
"64 64 208 2 ",
"   c #010115",
".  c #01041C",
"X  c #01091F",
"o  c #000621",
"O  c #040B24",
"+  c #0A0F26",
"@  c #050C29",
"#  c #090E2A",
"$  c #061125",
"%  c #0B1326",
"&  c #07112B",
"*  c #0A142C",
"=  c #0C1A2D",
"-  c #121B2F",
";  c #0D1432",
":  c #0E1933",
">  c #0E1738",
",  c #0E1C39",
"<  c #111633",
"1  c #121B35",
"2  c #101638",
"3  c #141D3B",
"4  c #191E3C",
"5  c #10202D",
"6  c #0F2032",
"7  c #142235",
"8  c #1A2636",
"9  c #15223B",
"0  c #1A233D",
"q  c #17293C",
"w  c #1C2B3D",
"e  c #1D313F",
"r  c #202D3E",
"t  c #22323F",
"y  c #141E41",
"u  c #1C1F40",
"i  c #172140",
"p  c #1B2443",
"a  c #1D2A43",
"s  c #1E264A",
"d  c #1E2A4A",
"f  c #1D3342",
"g  c #1F3C44",
"h  c #202745",
"j  c #222C45",
"k  c #232C4C",
"l  c #282F4B",
"z  c #233344",
"x  c #293946",
"c  c #25324C",
"v  c #2A334D",
"b  c #253A4B",
"n  c #2A3C4C",
"m  c #233946",
"M  c #242E52",
"N  c #263252",
"B  c #2B3454",
"V  c #2D3B55",
"C  c #273359",
"Z  c #2C365A",
"A  c #2E3B5B",
"S  c #303556",
"D  c #313C55",
"F  c #323759",
"G  c #323C5D",
"H  c #2E3C60",
"J  c #2D3866",
"K  c #333E62",
"L  c #393F62",
"P  c #333D69",
"I  c #2A424E",
"U  c #26454C",
"Y  c #2D4454",
"T  c #2D4B54",
"R  c #2E425A",
"E  c #2E4F58",
"W  c #324355",
"Q  c #344A55",
"!  c #33435D",
"~  c #38455C",
"^  c #354A5C",
"/  c #394C5D",
"(  c #384C57",
")  c #2F5059",
"_  c #36515E",
"`  c #39515B",
"'  c #2F4167",
"]  c #354264",
"[  c #394465",
"{  c #354A63",
"}  c #3A4B64",
"|  c #364469",
" . c #3A466B",
".. c #37496A",
"X. c #3B4A6C",
"o. c #375164",
"O. c #3A5364",
"+. c #3B5965",
"@. c #3D526B",
"#. c #3D5A6B",
"$. c #364672",
"%. c #3A4671",
"&. c #3D4B73",
"*. c #3D4D7A",
"=. c #3E5173",
"-. c #3F507B",
";. c #3F616B",
":. c #414B6D",
">. c #414864",
",. c #405767",
"<. c #42526C",
"1. c #47596F",
"2. c #4C576D",
"3. c #424E73",
"4. c #414E7A",
"5. c #435274",
"6. c #4A5476",
"7. c #455877",
"8. c #4A5B74",
"9. c #43527C",
"0. c #4A567B",
"q. c #4C5B7D",
"w. c #455A79",
"e. c #525C7D",
"r. c #555B71",
"t. c #40626B",
"y. c #50617D",
"u. c #3E4E82",
"i. c #455482",
"p. c #4A5784",
"a. c #465A83",
"s. c #4C5B84",
"d. c #4D5C8A",
"f. c #505D83",
"g. c #525E8B",
"h. c #5B5F82",
"j. c #4D5F91",
"k. c #4C6183",
"l. c #4E608B",
"z. c #536386",
"x. c #5A6383",
"c. c #53638C",
"v. c #58668D",
"b. c #5C6C8D",
"n. c #536B88",
"m. c #4F6493",
"M. c #546494",
"N. c #5A6692",
"B. c #556892",
"V. c #5A6A94",
"C. c #55659D",
"Z. c #55699C",
"A. c #5C6C9B",
"S. c #626B88",
"D. c #64718B",
"F. c #626F92",
"G. c #637394",
"H. c #6A7695",
"J. c #62739D",
"K. c #69769D",
"L. c #6B7B9D",
"P. c #6B7993",
"I. c #5768A0",
"U. c #5A6CA3",
"Y. c #5A6EA9",
"T. c #5E72A4",
"R. c #6475A4",
"E. c #6977A3",
"W. c #6678A4",
"Q. c #6C7BA4",
"!. c #6475AB",
"~. c #667AAD",
"^. c #6C7BAB",
"/. c #707FAA",
"(. c #6C79B0",
"). c #77809D",
"_. c #6E81AB",
"`. c #7584A5",
"'. c #7686AB",
"]. c #7C8AAC",
"[. c #7C87A7",
"{. c #6E83B2",
"}. c #6F84B9",
"|. c #7485B6",
" X c #7689B2",
".X c #7A8AB3",
"XX c #758BBE",
"oX c #7486BB",
"OX c #7B91B8",
"+X c #7589C5",
"@X c #7E91CA",
"#X c #8A97B8",
"$X c #8597C5",
"%X c #8A99C2",
"&X c #8396CB",
"*X c #869AC7",
"=X c #869CD5",
"-X c #8EA1C9",
";X c #97A9CF",
":X c #93A2C8",
">X c #8CA1D0",
",X c #99ACDD",
"<X c #9CB2D7",
"1X c #A7AEC8",
"2X c #B1BFDC",
"3X c #ABB6D4",
"4X c #A5BAE9",
"5X c #B2CAFA",
/* pixels */
"N 1   j v.K.G.5.k N K c 9 [ N 0 p O O O h :.E.K.N.X.< O k J.:X%XE.g.:.a : 1 & k Z 0 & : & O @ O O O @ + O O * 1 @ O O c B B N c ",
"O . 2.x.| 5.b.E.R.Q.J.V.z.g.N.q. .; & k [ [  .[ [ [ B O X.R.Z.a.a.9.z.9.3 . A.<XXXoXA.O  .f.3 & : J._.0.G.L.C O : O & ; , y s * ",
"@ V ].Z K A Z B Z V V ! ! ! X.] ] G @ [ G Z Z Z Z S p * G 3.%.G ! ! V [ d P }. ...a.~.] d.7.k % J @XR.XXL.H.;Xf.% : M !.&X-X,Xl.",
"H 0 Z A G A ] ] ] ..] ] G ] ] A K Z O V X.$.@.+.O.[ N = Z G K G G ! F G d 9.X.&.X.s.%.- z.! p 7 ; *.K 9.$.Z  .M.$ p T.+X&X~.^.Z.",
"C ] X.[ A K G Z G ] K [  .$.%.%.$.c p 1 [ P { { ] N 3 X G G G Z G D S ] 0 i.9.X.&.G 9.k [ L h 7 p d.4.&.4.i.X.&.* d j.i.4.| ] i.",
"1 V.&.! B ] B A Z ! [ %.$.A X.$.] k [ * ; j j B B Z s O ! ] ] G K G ] K ; i.M.9.K A [ Z p [ p 7 p d.P c  . .%.[ $ B B.$.] %.]  .",
"0 : g.0.Z ] K ] c Z ] Z G G Z G A a [ p G 5.} [ [ ] [ < <.] { ] K ] ..] ; *.d.| Z K A K y F p 7 s p.N ] ] X. .Z $  .d.H G  .] G ",
"p & k R.] ] ] ] K G A G Z A G G K B G < 6. .@.#.@.X.X.* <.A O.#.#.} G 4.> g.3.G [ G G ] a ; : 1 3 N  .c. .K ] v O =...A G ] A A ",
"; c k | 5.{  .$. .]  . .A Z A Z N G j . k V z z j c k * * 1 f b V w d M @ s.%.] ] K G  .n ; O & 1 Z %.G Z ] G 0 * :.d.A ..Z Z F ",
"@ ; M.k ! { &.4.&. .] &.&.G K A M Z p o > z.0.G N.s.p X ! A.!.(.Z.&.M s ; H X.{ { Z Z X.W O O * }  .A ] G p j a 1 X.Z. .G %.G V ",
"* N 2 P ..^ } -.] &. .]  . .$. .B v N @ i.0.5.z.c.q.V 1 n.7.c.M.j.!.R.Z.p i ..o.....!  .9 B B O ! ] ] Z a ~ ^ q * 5. .B B C Y v ",
"* a.y M.@...X.X.X.i. .] G ] 4.K d.^ D 3 z.:.] ! Z ] R 9 p.B ] ] ] ] A ..d O d ] O.;.O.j ; 5.G * w ] / w & j 3 @ : X.B Z ] a ( B ",
"$  .A %.X. . .] %.K K ] G A ] Z X.X.c c A.3.] [ | ] A % 5.K G  .Z  ...Z d 1 O > a d 3 @ 1 K G 0 = c ; * o @ : @ O V K [ z n W B ",
"- W s %.X.G ] ] K $.3.K ] K ] ] Z ! j k s.A K ] A ] z 7 8.]  .s.9.] G A A A 3 1 & @ s g.N B k ; O 3 b. XA.%.c * 1 I { ^ z 9 w < ",
": z > p.9.G M.K [ ] G K K A  .9.i.} w M d.] K G ]  .v p 1.N 9.|.3.Z ] ] d 5.].K O ; g. .K G ; O x s.G.5. .X.[ * * 7 w m c <.n O ",
"1 p p &.A M.d.K ] G ] ] G G ] -. . .j 1 J.G G A ] ] v 0 5.k | V Z ] ] K k X.G K 3 > V.Z B G Z O W c p <.{ R B 3 * 0 q.Q.%.XXZ 1 ",
"w / N M A B. .&.9.9.] G A G G K G  .p X J.X.A &.| Z c * F.A A G  .] G A ] 5.N G N @ 9.5./ / [ 3 * ! O./ Y a > O O ; B A G B A p ",
"x } p c [ s.d.i.d.X.G G A A G ] ] } 0 X s.q. .Z.@.G z 2 q.V G A K G Z R } :.K ] A 1 p d p x l 3 & 0 q & p } ] X.X.i ; 3 : 3 ; & ",
"n <.%.] V B G  .] G K ] ] K ] K ] ! A   l k.I ! G ! z j X.Z G ! G G ] { { [ ] ] ] p : K ] c p p @ * 7 G.-XOXW.{.*X_.| e.v.5.G 1 ",
"0 W ! ] _ O.^ ! ! ] ] ] ] ] ] ] ..{ x p 7 N.X.@.] Z 0 B 3.! } } { o.o.o.] ..! G K 3 p ] 5.<.[ G & V $XW.X.V R ] Z  . . .X.} G k ",
"1 w p  .O.#.t.#.} @.O.@.@.O.@.O.! b = 3.4 p A a : ; O p 3.Y T T I z m x 9 V R { { 3 R z 7 7 k k O A.B.P &.X.]  .G [ 9...G A A N ",
": p p 1 * + * 1 ; : 9 , : 3 i 3 ; < c k B k # B X.v 0 O * k <.e.z.F.H.f.}  .} ! d O . s Z d s ; 1 %X%.&. . .! B Z B ] !  .5.G N ",
"; G } X.l.B.*.K ] [ ] ! V O O 1 p.R.R.z.B.0.G 5.q.0. .: k z.V.l.d.s.d.%. .X. . .] p N V.6.0.f.B G '...[ K ..[ A  .V...G ] 3.Z B ",
"0.K.v.X.] X.&. .9.s.5.7.5.9 # [  ... .K Z G K Z A A Z 0 6.Z G K ] Z G A Z C M M k 3 | 9.p p s p Z B.$.G G G ] X.s.:.G G A G Z c ",
"] B ! ! ! ! ! ! ! ! ] G K j p 0.A ] ! V ! ! G ! } ] V ; Z p y ; > ; ; > : 1 ; * & O X ; ; ; 2 > ; &.=.] ]  .G ] ] K A ] G B G k ",
"; a V Y n b x n Y Y B j a * . 1 p k b x b m m c w 9 ; o # K r.V.A.Q.`.`.Q.J.q.} q.y.w.] ] @.! 1 . ] =.X.] ] K ] A G [ &.G V Z C ",
"@ @ o < Z G k 3 O O # j [ q.e.q.z.i.0.s.i.0.3.[ 0.c.[ O 9.'.D.5.[ [ [ [  .[  . .X.X.5.5.3.6.X.[ O 5.=. .K 4.] ] ] ! ] ] K B Z B ",
"* & k A.p.q.q.3.9 + V..X].H.e.X. .d.F.).L.M.5.s.@.q.R.B G [ c K G ] 9...] ! | [ V  .] G A G z  .0 9.9. .X.K G ] { ] ] ] ] V B N ",
"& * c.%.K | ] G l p p.v C @ N c.@X>X#X#X|.Z.! ] A V V Z K 5.D ] ] ] 5.] X.] ] G G G ] G ] W w [ 4 =.$.P | [ K ! { ]  .]  .A ..B ",
"; 3 c.&.9.9.&.^ 1 C M.G P `.<X!.R.%.u.' %. .V G ] ! ! ] K s.W { ..{ ! ! $.] A ]  .! } o.^ x ; 1 O } n.{ ! } ] ] } X.@.@.<.X.9.k ",
"* a R.&.4.-.&.( % C g.G ~.$Xc.$.] [ s.]  .&.] ] ! ! G [ k a W O./ { o.X.] ] } ^ ! Y Y b N 3 ; 0 1 & j Y ) Y R V V R V b b V c & ",
"3 p 5.9.] ] ] / 8 p 3.] ] P *.[  .P &.K K d.9.! { ^ V [ d o 1 N ..} ^ V V ! c A 9.B.A.c.5.Q c B B & . 1 v >.} <.<.5.3.[ v v B M ",
"0 N s.d.Z Z Z ` z 1 X.V G ]  .} { ] ] K ] 9.] ] ] ^ V L p < J.{.^.V.z.q.] ; X.M.c.5.] ! K ] | G k   J.&XK.b.D.H.G.K.G.F.z.5.X.G ",
"B K c.i.Z &.g.x w * 3.G K ] ] ] { ] K K ]  .] ] { / G K a j b.! ! G !  .:.c b.B G W ] ^ ^ ] K X.k j oX%.A Z C k B B Z H G ] ! G ",
"B Z s.K G ..[ n : O %.K G G  .X.{ ]  .] A K ] ! ^ ! B G k O % w B D ! ] k 0 ! Q Q p j W O.+._ } l v.9.G 9.C.R.Q.3.A G ! G ! ! Z ",
"Z d { ] ..K K ..7 O [ G Z G g.k.b &.s.A ] | A B N V V G B 1 j 9 < * 2 % < 3 c v a 9 1 3 0 q z z ! A.G ] &.9.0.X.] A Z V X.] ! A ",
"Z a x ! ! ! ! / w o K ] V $.J 3 k &.A K  .] G ] H W Q G Z } z.f.0.{ : f.z.z.c.N.v.N.g.s.! %.d . k d.A K G G B A ] G ] } ` ! G V ",
"B k K B v j c x V * 1 3 s Z h.#X'.*.s.i.] | ..G A ] ! G j } N Z G W f.g.v A G A A V B V ] } 6.O p 9.Z G &.d.%.] %. .i./ Q W G V ",
"Z p ] } O.O.O.+.V # 3 9.V.G.P.5.Z ] ] K ] &...] ^ ^ ! G 1 [ K [  .8 [ W {  .] G K ] ] G Q A F p ; 3.G ! ! X.p.<.! ] ] ! ! D G G ",
"G p 1 Y Y T T w o @ i.4.G R V ] ] ] ..]  .3...] { { V ] v [ [  .w :.:.K X.G  .%.] G A [ ..W G B <  .G ] G V G ! ] ] G G ] V Z G ",
"K j 1 M G K ] X.c O 9.K Z ! ] 5. .&.X.] [ 9.Z C ] ! G ! * p p - 5.0.B A Z K K  . . .| ] 0./ ! k #  .Z G G Z G K A ] G G ! G V G ",
"K 1 B g.%.X.X.3.5.1 [ ] G Z p M k s B A %.P %.5.G ! ,.j j B X B q.v ] ] ] K K G [ ]  .] K ] ! v O %.X.{ { { } } ] ] G ] ! ^ {  .",
"& O 5.] K G A K K l 3 @.@.R [ 7.d...A ! @./ O.O.` ^ c # G N * V W ! ] ] ] K ] | ]  ...] ] { ^ w O p Z r j c n V b k k B M c c 4 ",
"a & X.]  .] G K K B o 5 U T t w e z w w z a f f w c j 3 < & z <.} ! ] ] ]  .$.] ]  . .K G ! V e & . p 6.S.x.:.} :.D v G V V v p ",
"A 0 g.] &.$.|  .G G & O p a Z c k M Z K X.s > G G  .! [ B 7 } c.5.G |  .| .. .] [ ..] i.f.} X.b X k q.0.f.J.l.X.0.&.X.X.X.X. .G ",
"Z 9 c.G ] $.&.X.G B 3 %.%.K ] K G G Z Z Z d p A Z V Z B G 7 ] c.s.G ]  . .| X.] .. .]  .d.^.s.c & 5.H K H K X.^ ! K K K ! B G A ",
"Z 1 x Z K %.] Z K k p  .c V B N B A ] Z ] A M  .G G B N A 7 c c.I.] ..]  .] ] &.] ] ] G G $.! b p v.H ] ] G ! o.] ] K A G Z G A ",
"G O 1 7.Z K B a ] 3 A A A Z B Z A A G Z G k k ] G A Z V G 0 k 7.!. .]  .] A g.9.K ] ] X.] %.] c z b.G ] Z K ] { ! B K ] G G ] G ",
"K O a ..@.{ { ] [ = B G ! { { { ! { } o.O.W k B ^ _ ^ / ^ e b 3.T.0.Z ] ] ..&. .4. . . .| .. .b 1 f.G ] ] ] ! ..] G ....! ] ] ] ",
"Z * * c T E T I z 3 * 9 v n I I n U g f w = ; B Y I Y m 6 7 a w.=Xm.9.9.K X.d.j.i.%.] K ..] ] c # q.Z ] &.X.| %.]  . .{ { ] ]  .",
"3 O < [ 5.5.[ <.^ 1 k q.<.3.s.l.&.d..X`.Q.W.R.V.3.=.@.G 3 & $ _.=XY.C.| l. .] X. .] ..$.| ] ] V o k } +.@.X.X.X. ...X.@.5.5.9.9.",
"; ; 9.&.3.X.G q.T.. *.$X2X1X3X4X5X+X/.%X:XR.&.] 9.9.o.X.[ * O s.U.k  .M.i.K ] K %.&.4.$.] ..G 0 @ O : c Y Y Y V Y R I b b v j 4 ",
"q.h p.Z B F B  .s G v.P H P %.p. X$.*.P P ] ] ] ] X.{ &.K * & p H u [.X.$.] ] ] ..4.4. .] ] k 3 @ O < 1 q z j w * X q G ~ :.8.z.",
"Z p G L G G G C O x.X.] ] &.4.K C [ 9.]  .] K  .K ! ^ [ B 7 O Y w.] 3... .] &.-.4.&.3. .] V Z V o B z.f.s.z.z.G.z @ q.:.X.9.X. .",
"L 3 O p M Z ] p 2  .K [ ..K  .0.] ] %.A K G ] G V $.X.G b q * } ! K K ..X.%.9.&.*.&.*.$.G B Z V O ] V Z B v |  .x 9 0.l 5.] K K ",
"K p A G 3 3.q.Z @ 5.] ] ..]  .| ]  .] G  .] G G :.] G G B * k  .K ] K ] $.] G [ ..A G G G Z Z n % [ Z ] G K *. .V * 3.[ } R.d.N ",
" .4 s.3.5.] K K ;  . .] ..] ! K ] ] K ] ] A G ]  .H ! G N & B X.&. .A G K G ] G K  .G A G M B b : 3.Z ] ! K Z G n & G j 9.!.G [ ",
"] u 1 3. .]  .] 3 Z  .i.] ! { ] A G A ]  .G ] ..K G Q G Z % k ! ..Z G G G K &.Z &.X.&.Z d. .V n &  .Z ] ] K G G Y < :.k ] &.] ] ",
"k @ G B.G G A G p P K  .X.! ] ] A G Z &.c.V G K P ! W X.] O a ! G ! K 4.i.U.d.$.3.$.4.%.! @.0 7 O :.V ] ] K 3.! ( 1 3.Z Z Z G G ",
"X.< } } X.N ! A p G X.9. .%.{ ! K G G K [ X.5.:.} !  .%.G % } { W { 5.9.l.M.Z 5.&. .3.X.W n q O @ 0.G 5...G p.W ( * 3.B Z G G ] ",
"[ w  .[ W B {  .Z X.} ] X.] ] {  .&.5.=.=.X.X.} { X.=.p.k . ] } ! W W ^ R V ! G ] ] { ] ] ] / 9 X [ B 5.] ! <.( W @  .Z A ! ] ] ",
"K 0 X. .:.~ D @.M A  ...K K ..! K G K ] ] ] ] X.X.5.M.X.=   ] @.Q 9.9.{ .... .[ ] ] ] ..]  .D p X G D X.} / ( ` n @  .! { ] ] K ",
"G k D [ %.5. .:.3 k W W Q ^ { } { } } ] ..} O.+.@.@.A c 8 . h [ ! 5.d.M.i. .X.] K ] ] K K B c a 1 [ ^ A G ! V V l & X.} { { ] ! ",
"] V o 1 d k B k & * ; 1 x x z w a a 7 * * 3 a e w 9 & O O y < 4 0 a k Z K A Z B B Z Z N k p 0 * 1 5.^ { o.o._ W p X p 5.! o.o.o."
};
